<?xml version="1.0" encoding="UTF-8"?>
<svg version="1.1" xmlns="http://www.w3.org/2000/svg" width="553" height="451">
<path d="M0 0 C2.03342246 -0.0029975 4.06684434 -0.00640138 6.1002655 -0.01017761 C11.59013453 -0.01896113 17.07998794 -0.02135332 22.56986332 -0.0219934 C26.00853955 -0.02270705 29.44721189 -0.02484731 32.88588715 -0.02749062 C44.90716298 -0.03672497 56.92842777 -0.04082785 68.94970703 -0.04003906 C80.11556809 -0.03943862 91.28138079 -0.04998892 102.44722962 -0.06578273 C112.06806229 -0.07890117 121.68887923 -0.08422117 131.30972075 -0.08358365 C137.04062718 -0.08332995 142.77149057 -0.08610999 148.502388 -0.0967617 C153.89677885 -0.1065156 159.29108614 -0.1064724 164.68548012 -0.09924507 C166.65212185 -0.09820827 168.61876899 -0.10050753 170.58540154 -0.10660553 C204.60178516 -0.20515378 238.42337277 5.20745035 265.60839844 27.14526367 C266.34960938 27.70342773 267.09082031 28.2615918 267.85449219 28.83666992 C279.47736455 37.7444393 290.37077896 48.31493823 297.60839844 61.14526367 C298.20652344 62.17651367 298.80464844 63.20776367 299.42089844 64.27026367 C299.75992187 64.87483398 300.09894531 65.4794043 300.44824219 66.10229492 C301.27088208 67.55091669 302.12010923 68.98458534 302.98730469 70.40698242 C318.62165993 97.06294579 318.23939762 128.35991064 317.99963379 158.27655029 C317.97785557 161.70547393 317.97870181 165.13423912 317.9799099 168.56322002 C317.97936194 171.91706186 317.96833197 175.27080436 317.95390701 178.62461281 C317.94763906 180.2011624 317.94362422 181.77772295 317.9421196 183.35428429 C317.9225364 193.12276257 317.28437817 202.49131256 315.60839844 212.14526367 C315.40677094 213.31824509 315.20514343 214.4912265 314.99740601 215.69975281 C309.28622612 247.35612366 289.33492395 275.38558287 263.60839844 294.14526367 C259.70842747 296.68317111 255.70940145 298.94957138 251.60839844 301.14526367 C250.53976562 301.73178711 249.47113281 302.31831055 248.37011719 302.92260742 C221.87291283 316.88941526 194.04831273 318.26510777 164.66676712 318.3139286 C161.20172628 318.32119322 157.73681913 318.33692657 154.27182007 318.35527039 C144.43171877 318.40731345 134.59170127 318.45576733 124.75146484 318.47119141 C118.70398133 318.48128536 112.65685192 318.51062483 106.60950851 318.55251122 C104.31711887 318.56478328 102.02467924 318.56994945 99.73225784 318.56771278 C96.52863982 318.56535313 93.32603879 318.58757058 90.12255859 318.61523438 C89.18730347 318.60863297 88.25204834 318.60203156 87.28845215 318.5952301 C78.5754331 318.71831135 71.9259313 321.52896881 65.35839844 327.27026367 C60.6627041 331.276195 55.86041698 335.0665369 50.93554688 338.7824707 C48.81786157 340.39204266 46.78258183 341.96704826 44.92089844 343.87182617 C43.60839844 345.14526367 43.60839844 345.14526367 40.60839844 346.14526367 C38.93023793 347.80035668 37.26554153 349.46912754 35.60839844 351.14526367 C33.45333625 352.9252995 31.22290657 354.59830212 28.98339844 356.27026367 C24.76940884 359.37720942 24.76940884 359.37720942 20.89746094 362.88745117 C19.60839844 364.14526367 19.60839844 364.14526367 16.60839844 365.14526367 C14.92886234 366.79896076 13.26430889 368.46790977 11.60839844 370.14526367 C9.48076464 371.84950101 7.35140433 373.51307213 5.17089844 375.14526367 C4.06708953 375.97734577 2.96422068 376.81067641 1.86230469 377.64526367 C1.05623779 378.2543457 1.05623779 378.2543457 0.23388672 378.87573242 C-1.44779529 380.18915183 -3.06063182 381.56480531 -4.67675781 382.95776367 C-7.39160156 385.14526367 -7.39160156 385.14526367 -9.39160156 385.14526367 C-9.39160156 385.80526367 -9.39160156 386.46526367 -9.39160156 387.14526367 C-11.36294142 388.52061706 -13.36842078 389.84737411 -15.39160156 391.14526367 C-16.17535156 391.78463867 -16.95910156 392.42401367 -17.76660156 393.08276367 C-18.63285156 393.76338867 -19.49910156 394.44401367 -20.39160156 395.14526367 C-20.94203125 395.59514648 -21.49246094 396.0450293 -22.05957031 396.50854492 C-27.06228717 400.17032737 -31.32085896 400.90596568 -37.48535156 400.63354492 C-43.24519824 399.66582875 -46.82702152 396.79219004 -50.76660156 392.64526367 C-53.99873251 387.67275452 -54.63911293 383.79980415 -54.61865234 377.87646484 C-54.6189444 377.16372406 -54.61923645 376.45098328 -54.61953735 375.71664429 C-54.61815014 373.37371411 -54.60261792 371.03110667 -54.58691406 368.68823242 C-54.58318176 367.05870233 -54.58033581 365.42916998 -54.57833862 363.79963684 C-54.57071923 359.52033238 -54.55108537 355.24116467 -54.52893066 350.96191406 C-54.50843568 346.59140879 -54.4993291 342.22088132 -54.48925781 337.8503418 C-54.46783781 329.28191982 -54.43372241 320.71360878 -54.39160156 312.14526367 C-55.1501796 311.93980423 -55.90875763 311.73434479 -56.69032288 311.5226593 C-57.68366135 311.25285751 -58.67699982 310.98305573 -59.70043945 310.70507812 C-60.68589249 310.43774368 -61.67134552 310.17040924 -62.68666077 309.89497375 C-75.31558194 306.39470138 -86.67760849 300.6260399 -97.39160156 293.14526367 C-98.57804973 292.39360086 -99.7654179 291.64338626 -100.95410156 290.89526367 C-101.75847656 290.31776367 -102.56285156 289.74026367 -103.39160156 289.14526367 C-103.39160156 288.48526367 -103.39160156 287.82526367 -103.39160156 287.14526367 C-104.26751953 286.74114258 -104.26751953 286.74114258 -105.16113281 286.32885742 C-113.27340657 282.02409569 -118.84037139 274.21995175 -124.39160156 267.14526367 C-125.08125 266.29061523 -125.77089844 265.4359668 -126.48144531 264.55541992 C-146.55626987 239.22583557 -152.58321041 207.13610472 -152.52441406 175.53979492 C-152.52537079 174.37631027 -152.52632751 173.21282562 -152.52731323 172.01408386 C-152.52798926 169.56781968 -152.52617558 167.12155364 -152.52197266 164.67529297 C-152.51664077 160.98490237 -152.52192492 157.29463481 -152.52832031 153.60424805 C-152.54190167 118.95791596 -152.54190167 118.95791596 -149.32910156 104.83276367 C-149.0069165 103.39163208 -149.0069165 103.39163208 -148.67822266 101.92138672 C-144.43537193 84.02820022 -136.86089128 67.54591031 -125.39160156 53.14526367 C-124.53501953 52.01217773 -124.53501953 52.01217773 -123.66113281 50.85620117 C-102.18858409 22.96402448 -71.04337816 6.34907293 -36.43661118 1.53210163 C-24.3071918 -0.00881956 -12.20222906 -0.00361239 0 0 Z M-35.21530151 41.98956299 C-35.92099466 42.06075025 -36.62668782 42.13193752 -37.35376561 42.20528197 C-45.16899656 43.13620511 -52.25223714 45.94485893 -59.39160156 49.14526367 C-60.54273438 49.65702148 -61.69386719 50.1687793 -62.87988281 50.69604492 C-68.27937172 53.24745177 -72.41027355 55.61097343 -76.39160156 60.14526367 C-77.67077858 61.28444492 -78.96380049 62.40817683 -80.26660156 63.52026367 C-88.0552257 70.17271751 -88.0552257 70.17271751 -94.39160156 78.14526367 C-94.39160156 78.80526367 -94.39160156 79.46526367 -94.39160156 80.14526367 C-95.05160156 80.14526367 -95.71160156 80.14526367 -96.39160156 80.14526367 C-96.8028125 80.96897461 -97.21402344 81.79268555 -97.63769531 82.64135742 C-98.87582292 85.11485511 -100.11782661 87.58612068 -101.36425781 90.05541992 C-102.06089997 91.43952063 -102.75751414 92.82363542 -103.45410156 94.20776367 C-103.80537109 94.90192383 -104.15664062 95.59608398 -104.51855469 96.3112793 C-104.85951172 96.9899707 -105.20046875 97.66866211 -105.55175781 98.36791992 C-106.01014038 99.27682983 -106.01014038 99.27682983 -106.4777832 100.20410156 C-114.86135575 118.01275381 -113.78074092 139.8525118 -113.76660156 159.08276367 C-113.76823303 160.12194946 -113.7698645 161.16113525 -113.77154541 162.23181152 C-113.76670285 189.54278761 -113.08307693 218.79034501 -95.39160156 241.14526367 C-94.34359375 242.5297168 -94.34359375 242.5297168 -93.27441406 243.94213867 C-89.64479432 249.11473778 -89.64479432 249.11473778 -84.39160156 252.14526367 C-84.06160156 253.13526367 -83.73160156 254.12526367 -83.39160156 255.14526367 C-81.23554156 256.87128185 -79.09932074 258.45945161 -76.82910156 260.02026367 C-75.86302979 260.6917041 -75.86302979 260.6917041 -74.87744141 261.37670898 C-73.60706808 262.25568039 -72.33402919 263.13081417 -71.05810547 264.00170898 C-69.77469778 264.88238311 -68.50726403 265.78636811 -67.24707031 266.69995117 C-53.65166446 276.09090871 -37.87618235 277.49616683 -21.86499023 278.8515625 C-19.39160156 279.14526367 -19.39160156 279.14526367 -16.39160156 280.14526367 C-16.06160156 300.27526367 -15.73160156 320.40526367 -15.39160156 341.14526367 C-12.51298426 339.70595502 -10.56283012 338.62877412 -8.14941406 336.68432617 C-7.55773437 336.2125293 -6.96605469 335.74073242 -6.35644531 335.25463867 C-5.74929687 334.76479492 -5.14214844 334.27495117 -4.51660156 333.77026367 C-0.25403542 330.34187714 4.03839538 327.15166803 8.60839844 324.14526367 C9.62708505 323.16430619 10.63191827 322.16824289 11.60839844 321.14526367 C12.59839844 320.48526367 13.58839844 319.82526367 14.60839844 319.14526367 C14.60839844 318.48526367 14.60839844 317.82526367 14.60839844 317.14526367 C15.19266602 316.8674707 15.77693359 316.58967773 16.37890625 316.3034668 C19.95893082 314.44367304 23.10830229 312.02293326 26.35839844 309.64526367 C27.05578125 309.14639648 27.75316406 308.6475293 28.47167969 308.13354492 C29.45974609 307.41231445 29.45974609 307.41231445 30.46777344 306.67651367 C31.07073242 306.23887695 31.67369141 305.80124023 32.29492188 305.3503418 C32.72836914 304.95266602 33.16181641 304.55499023 33.60839844 304.14526367 C33.60839844 303.48526367 33.60839844 302.82526367 33.60839844 302.14526367 C34.35089844 301.89776367 35.09339844 301.65026367 35.85839844 301.39526367 C38.82630388 300.04621574 40.36372766 298.46475681 42.60839844 296.14526367 C43.59839844 295.81526367 44.58839844 295.48526367 45.60839844 295.14526367 C46.75557006 293.99809205 47.89936006 292.84726125 49.02246094 291.67651367 C57.18914496 283.79143944 64.6270928 279.04832118 76.13305664 279.00050354 C77.74321907 278.99015579 77.74321907 278.99015579 79.38591003 278.979599 C80.54858902 278.97698563 81.71126801 278.97437225 82.90917969 278.97167969 C84.14577835 278.96499268 85.38237701 278.95830566 86.65644836 278.95141602 C89.33935846 278.93738122 92.0222154 278.92504978 94.70513916 278.91546822 C98.96053042 278.89993298 103.21584915 278.87598041 107.47119141 278.85057068 C119.56977734 278.7795993 131.66840526 278.7198059 143.76708984 278.66845703 C150.4547525 278.63999903 157.1423433 278.60453276 163.82993031 278.56180328 C168.04595957 278.53527775 172.26190774 278.51722185 176.4780035 278.50576603 C179.74287069 278.49435771 183.00765082 278.47027356 186.27246094 278.44824219 C187.41894608 278.44765305 188.56543121 278.4470639 189.74665833 278.44645691 C200.58992353 278.3503088 211.46641389 277.55389588 221.54589844 273.33276367 C222.17431641 273.06995605 222.80273438 272.80714844 223.45019531 272.53637695 C228.0312741 270.55753244 231.71386006 268.22843989 235.60839844 265.14526367 C236.7028125 264.54198242 237.79722656 263.93870117 238.92480469 263.31713867 C248.45160045 257.95221956 256.29896927 248.93193076 262.60839844 240.14526367 C263.21296875 239.31768555 263.81753906 238.49010742 264.44042969 237.63745117 C279.30307794 215.94251799 279.12612279 189.77068037 278.99951172 164.41113281 C278.98340034 160.58321601 278.99947519 156.75635233 279.01855469 152.9284668 C279.12137502 117.16922809 279.12137502 117.16922809 265.00292969 85.00463867 C263.60839844 83.14526367 263.60839844 83.14526367 262.24121094 80.76245117 C254.52666036 68.39702321 241.0047478 55.74964622 227.60839844 50.14526367 C225.6910652 49.25085788 223.77440694 48.35500382 221.85839844 47.45776367 C215.12076269 44.36127539 208.94279573 42.73062727 201.59671021 42.03643799 C200.28346163 41.91005585 200.28346163 41.91005585 198.94368279 41.78112054 C188.89683175 40.89050103 178.87412436 40.86419681 168.79541016 40.88647461 C166.69361247 40.88375603 164.59181573 40.88019029 162.49002075 40.87585449 C156.84552413 40.86683229 151.20110162 40.87023191 145.55660391 40.87661266 C139.61269545 40.88172457 133.66879277 40.87696706 127.72488403 40.87384033 C117.75098548 40.87021624 107.77711668 40.87495931 97.80322266 40.88452148 C86.31515428 40.89540898 74.8271569 40.89187197 63.33909023 40.88086867 C53.42595501 40.87175839 43.51284101 40.87052856 33.59970295 40.87574601 C27.70064134 40.87884445 21.80161296 40.87933402 15.90255356 40.87267303 C10.35539593 40.86684523 4.80832884 40.87099466 -0.73881912 40.88246155 C-2.75987092 40.88507907 -4.78093049 40.88439365 -6.80197906 40.87993622 C-16.31532684 40.86090785 -25.74669906 40.99704247 -35.21530151 41.98956299 Z " fill="#DB0EA1" transform="translate(196.3916015625,31.854736328125)"/>
<path d="M0 0 C1.29016243 -0.00445668 1.29016243 -0.00445668 2.60638875 -0.0090034 C5.49355833 -0.01768723 8.38068643 -0.01919838 11.26786804 -0.02069092 C13.33589263 -0.02531928 15.40391635 -0.03034397 17.47193909 -0.03573608 C23.09389344 -0.04885959 28.71583585 -0.05530486 34.33780313 -0.05974674 C37.84955459 -0.06267732 41.36130278 -0.06678208 44.8730526 -0.07125092 C55.85878589 -0.08492521 66.84451173 -0.09459242 77.83025295 -0.09845281 C90.51507352 -0.10293467 103.19978641 -0.12048887 115.88457423 -0.1494534 C125.6876578 -0.17106154 135.49071104 -0.18115661 145.29381818 -0.18249393 C151.14976114 -0.1835425 157.00560286 -0.1894616 162.86152077 -0.20731354 C168.36987608 -0.22377931 173.87805388 -0.22595692 179.38642502 -0.21717453 C181.40725238 -0.21640338 183.42808922 -0.22075711 185.44889259 -0.23063278 C188.20962963 -0.24333249 190.96973603 -0.23748616 193.73046875 -0.22705078 C194.52834047 -0.23510719 195.32621219 -0.24316359 196.14826185 -0.25146413 C201.35589042 -0.20549095 204.89146315 0.80665836 209.55570984 3.14044189 C210.47610046 3.59161377 211.39649109 4.04278564 212.34477234 4.50762939 C216.4797417 7.56137002 217.45834431 12.2899564 218.55570984 17.14044189 C218.84131601 22.70543483 217.61358535 27.44441878 214.55570984 32.14044189 C208.71146295 37.82673617 202.55771964 38.43751344 194.80171204 38.40113831 C193.49779402 38.40687663 193.49779402 38.40687663 192.16753423 38.41273087 C189.26121966 38.42303122 186.35510374 38.41907434 183.44877625 38.4151001 C181.36237404 38.41944822 179.27597343 38.42463171 177.1895752 38.43058777 C171.52633282 38.4439785 165.86315718 38.44455632 160.19990206 38.44202447 C155.47076994 38.44095476 150.74165133 38.44583814 146.0125221 38.45062989 C134.85470722 38.46172544 123.69692601 38.46216227 112.53910828 38.45611572 C101.03179631 38.45007562 89.52460661 38.46238783 78.01731551 38.48368579 C68.13434082 38.50130426 58.25140505 38.50730274 48.36841524 38.50404805 C42.46720644 38.50223537 36.56608485 38.50486986 30.66489029 38.51876259 C25.11463521 38.53134015 19.56457063 38.52939736 14.01431847 38.5163517 C11.97940062 38.51398619 9.94446936 38.51671967 7.90956688 38.52497482 C5.1273824 38.53544608 2.3458367 38.52733845 -0.43632507 38.5146637 C-1.23770161 38.52203798 -2.03907815 38.52941227 -2.86473882 38.53701001 C-9.26607833 38.47584315 -15.12234816 37.4623839 -19.81929016 32.76544189 C-23.81430628 26.31195432 -24.06293424 20.59459602 -23.44429016 13.14044189 C-21.72113331 7.32478752 -17.53770749 4.14174538 -12.44429016 1.14044189 C-8.32449653 -0.09381044 -4.26539156 -0.00459365 0 0 Z " fill="#C901A9" transform="translate(182.4442901611328,204.85955810546875)"/>
<path d="M0 0 C1.50542582 -0.00407033 3.01084865 -0.00941479 4.51626587 -0.01593018 C8.58652256 -0.02955481 12.65654998 -0.02432531 16.72681046 -0.01479292 C20.99650925 -0.00717108 25.26618907 -0.01424892 29.53588867 -0.01895142 C36.70462551 -0.02440163 43.87326947 -0.01723666 51.04199219 -0.00292969 C59.31724205 0.01339543 67.59227012 0.0081064 75.86751461 -0.0084089 C82.98623261 -0.02204472 90.10488403 -0.0239332 97.22361088 -0.0160929 C101.46929113 -0.01142788 105.7148673 -0.01075916 109.96054077 -0.02070236 C113.95303041 -0.02940033 117.94523549 -0.02329879 121.93769455 -0.00601959 C123.39853825 -0.0020698 124.8594061 -0.00316284 126.32024002 -0.00980759 C142.3349424 -0.07590827 142.3349424 -0.07590827 149.39453125 5.07568359 C153.42071842 10.5930512 154.99228205 16.6206668 154.08203125 23.38818359 C152.89576568 30.03382192 149.58226114 33.13051539 144.23828125 37.04052734 C140.40116002 39.43872811 137.30649115 39.51699112 132.87724304 39.52862549 C131.57759613 39.53433563 130.27794922 39.54004578 128.93891907 39.54592896 C127.49533091 39.54717431 126.05174264 39.5482994 124.6081543 39.54931641 C123.09037149 39.55394489 121.57258985 39.55896959 120.05480957 39.56436157 C115.92868333 39.57748478 111.80257336 39.58393039 107.67642951 39.58837223 C105.09855731 39.59130313 102.52068956 39.59540797 99.9428196 39.5998764 C91.87718084 39.61355123 83.81155226 39.62321791 75.74590272 39.62707829 C66.43545542 39.63155894 57.12515494 39.64910715 47.81475228 39.67807889 C40.61805155 39.69969589 33.42139212 39.70978259 26.22465926 39.71111941 C21.92641006 39.71216745 17.62829887 39.71807479 13.33008385 39.73593903 C9.2859895 39.75242002 5.2421369 39.75457515 1.19802094 39.74580002 C-0.28463323 39.74502965 -1.76730039 39.74937237 -3.2499218 39.75925827 C-5.27731816 39.77198169 -7.3048117 39.76430783 -9.33222961 39.75567627 C-10.4658257 39.75714283 -11.59942179 39.75860939 -12.76736927 39.76012039 C-19.11197199 39.01112286 -22.83373417 35.94625322 -26.66015625 31.13818359 C-30.22011364 26.18519941 -30.58180218 21.33204595 -29.91796875 15.38818359 C-27.8833777 9.28441043 -25.57118123 4.72328467 -19.70581055 1.77182007 C-13.34832563 -0.47861519 -6.65725848 -0.0302812 0 0 Z " fill="#C905C2" transform="translate(246.91796875,133.61181640625)"/>
<path d="M0 0 C4.70070258 2.80103721 7.71527078 6.46637486 9.6875 11.5625 C10.61818405 17.89115153 10.91323969 24.22863695 7.6875 29.9375 C7.0275 30.80375 6.3675 31.67 5.6875 32.5625 C5.0275 32.5625 4.3675 32.5625 3.6875 32.5625 C3.6875 33.2225 3.6875 33.8825 3.6875 34.5625 C-2.79912495 39.50469044 -9.36337438 39.50836952 -17.3125 38.5625 C-20.875 36.875 -20.875 36.875 -23.3125 34.5625 C-24.22 33.77875 -25.1275 32.995 -26.0625 32.1875 C-30.2873575 27.25849958 -30.72440834 22.3086314 -30.5546875 16.01953125 C-29.91496969 9.52949088 -27.03702269 5.83293557 -22.2265625 1.82421875 C-15.64418138 -2.51477941 -7.27085983 -3.06215058 0 0 Z " fill="#C906AA" transform="translate(189.3125,134.4375)"/>
<path d="M0 0 C2.81297336 1.40648668 3.45373351 3.26429774 5 6 C5.8971875 7.546875 5.8971875 7.546875 6.8125 9.125 C7.15152344 9.72957031 7.49054688 10.33414063 7.83984375 10.95703125 C8.66248365 12.40565302 9.51171079 13.83932167 10.37890625 15.26171875 C26.01326149 41.91768212 25.63099918 73.21464697 25.39123535 103.13128662 C25.36945713 106.56021026 25.37030337 109.98897545 25.37151146 113.41795635 C25.3709635 116.77179819 25.35993354 120.12554069 25.34550858 123.47934914 C25.33924062 125.05589873 25.33522579 126.63245928 25.33372116 128.20902061 C25.31413796 137.9774989 24.67597974 147.34604889 23 157 C22.7983725 158.17298141 22.596745 159.34596283 22.38900757 160.55448914 C18.86440567 180.09092589 9.73204939 198.83629311 -3 214 C-3.33 214 -3.66 214 -4 214 C-4.1875 211.6875 -4.1875 211.6875 -4 209 C-2.5625 207.375 -2.5625 207.375 -1 206 C-0.67 205.01 -0.34 204.02 0 203 C0.66 203 1.32 203 2 203 C2 201.02 2 199.04 2 197 C2.99 196.67 3.98 196.34 5 196 C7.22679679 192.65980482 7.09122101 191.83128253 7 188 C7.33333333 186.33333333 7.66666667 184.66666667 8 183 C7.938125 182.13375 7.87625 181.2675 7.8125 180.375 C8 178 8 178 10 176.1875 C10.99 175.5996875 10.99 175.5996875 12 175 C12.495 175.99 12.495 175.99 13 177 C14.44524884 172.57394994 14.44524884 172.57394994 15 168 C15.66 168 16.32 168 17 168 C16.67 166.02 16.34 164.04 16 162 C16.99 162.33 17.98 162.66 19 163 C19 159.04 19 155.08 19 151 C19.99 151.33 20.98 151.66 22 152 C22 120.98 22 89.96 22 58 C20.515 57.505 20.515 57.505 19 57 C19 55.35 19 53.7 19 52 C18.34 52 17.68 52 17 52 C15.23537317 48.91190305 15 47.76687864 15 44 C15.66 44 16.32 44 17 44 C17 42.68 17 41.36 17 40 C16.34 39.34 15.68 38.68 15 38 C14.1436973 35.36766208 13.61070073 32.70453182 13 30 C12.34 30 11.68 30 11 30 C10.67 30.99 10.34 31.98 10 33 C9.34 32.67 8.68 32.34 8 32 C8.04125 31.05125 8.0825 30.1025 8.125 29.125 C8.11527413 24.36904879 7.54154055 19.50921219 6 15 C5.01 14.34 4.02 13.68 3 13 C3 12.34 3 11.68 3 11 C2.38125 10.690625 1.7625 10.38125 1.125 10.0625 C-0.25 9.375 -1.625 8.6875 -3 8 C-2.67 7.01 -2.34 6.02 -2 5 C-1.34 5 -0.68 5 0 5 C0 3.35 0 1.7 0 0 Z " fill="#D744E9" transform="translate(489,87)"/>
<path d="M0 0 C1.29016243 -0.00445668 1.29016243 -0.00445668 2.60638875 -0.0090034 C5.49355833 -0.01768723 8.38068643 -0.01919838 11.26786804 -0.02069092 C13.33589263 -0.02531928 15.40391635 -0.03034397 17.47193909 -0.03573608 C23.09389344 -0.04885959 28.71583585 -0.05530486 34.33780313 -0.05974674 C37.84955459 -0.06267732 41.36130278 -0.06678208 44.8730526 -0.07125092 C55.85878589 -0.08492521 66.84451173 -0.09459242 77.83025295 -0.09845281 C90.51507352 -0.10293467 103.19978641 -0.12048887 115.88457423 -0.1494534 C125.6876578 -0.17106154 135.49071104 -0.18115661 145.29381818 -0.18249393 C151.14976114 -0.1835425 157.00560286 -0.1894616 162.86152077 -0.20731354 C168.36987608 -0.22377931 173.87805388 -0.22595692 179.38642502 -0.21717453 C181.40725238 -0.21640338 183.42808922 -0.22075711 185.44889259 -0.23063278 C188.20962963 -0.24333249 190.96973603 -0.23748616 193.73046875 -0.22705078 C194.52834047 -0.23510719 195.32621219 -0.24316359 196.14826185 -0.25146413 C201.35589042 -0.20549095 204.89146315 0.80665836 209.55570984 3.14044189 C210.47610046 3.59161377 211.39649109 4.04278564 212.34477234 4.50762939 C216.46824221 7.55287746 217.48714263 12.29326656 218.55570984 17.14044189 C218.58323142 20.33753255 218.17731336 22.98062401 217.55570984 26.14044189 C217.22570984 26.14044189 216.89570984 26.14044189 216.55570984 26.14044189 C216.55570984 23.17044189 216.55570984 20.20044189 216.55570984 17.14044189 C215.89570984 17.14044189 215.23570984 17.14044189 214.55570984 17.14044189 C213.56570984 12.19044189 213.56570984 12.19044189 212.55570984 7.14044189 C210.90570984 7.14044189 209.25570984 7.14044189 207.55570984 7.14044189 C207.55570984 6.15044189 207.55570984 5.16044189 207.55570984 4.14044189 C203.14623242 3.04874702 198.84193582 2.99761771 194.32852173 3.00672913 C193.50375526 3.00446357 192.6789888 3.00219801 191.82922941 2.9998638 C189.06738766 2.9935372 186.30559515 2.99435232 183.54374695 2.99517822 C181.56250444 2.99218579 179.58126252 2.98878307 177.60002136 2.98500061 C172.21744886 2.97616239 166.83489225 2.9738225 161.45231318 2.97318482 C158.08675328 2.97247393 154.72119741 2.97033879 151.3556385 2.96768761 C139.60600147 2.95843299 127.85637579 2.95435264 116.10673523 2.95513916 C105.16929213 2.95573917 94.23189847 2.94520275 83.29446787 2.9293955 C73.89467956 2.91629664 64.49490736 2.91095629 55.09511 2.91159457 C49.48552785 2.91184898 43.87598958 2.90902976 38.26641655 2.89841652 C32.98459296 2.8886967 27.70285484 2.88868291 22.42102814 2.89593315 C20.48938178 2.89697435 18.55773 2.89464389 16.62609291 2.88857269 C6.74407289 2.85954173 -2.74050383 2.977825 -12.44429016 5.14044189 C-12.67116516 6.06856689 -12.89804016 6.99669189 -13.13179016 7.95294189 C-14.67131105 11.69177834 -15.93895904 12.34283619 -19.44429016 14.14044189 C-20.59244013 16.43674184 -20.75198825 18.21742275 -21.00679016 20.76544189 C-21.09057922 21.58270752 -21.17436829 22.39997314 -21.26069641 23.24200439 C-21.32128235 23.86848877 -21.38186829 24.49497314 -21.44429016 25.14044189 C-22.10429016 25.14044189 -22.76429016 25.14044189 -23.44429016 25.14044189 C-24.02535185 11.84058537 -24.02535185 11.84058537 -20.44429016 7.14044189 C-13.72335077 1.104439 -8.94319993 -0.00963146 0 0 Z " fill="#D169C2" transform="translate(182.4442901611328,204.85955810546875)"/>
<path d="M0 0 C1.64051079 -0.002062 1.64051079 -0.002062 3.31416321 -0.00416565 C5.09117363 0.00122726 5.09117363 0.00122726 6.90408325 0.00672913 C8.16317001 0.0065831 9.42225677 0.00643707 10.71949768 0.00628662 C14.15912973 0.00600053 17.59872667 0.01186682 21.03835058 0.01886058 C24.63780888 0.02512546 28.23726805 0.02570039 31.83673096 0.02688599 C38.64702938 0.02999007 45.4573117 0.038191 52.26760304 0.04823548 C60.02333603 0.05942529 67.77906981 0.06491429 75.53480887 0.06993091 C91.48359325 0.0803744 107.43236156 0.09795594 123.38113403 0.12025452 C123.38113403 0.45025452 123.38113403 0.78025452 123.38113403 1.12025452 C120.08113403 1.12025452 116.78113403 1.12025452 113.38113403 1.12025452 C113.38113403 1.78025452 113.38113403 2.44025452 113.38113403 3.12025452 C112.77249512 3.13056198 112.1638562 3.14086945 111.53677368 3.15148926 C105.17717788 3.26003464 98.81771012 3.37459062 92.45828247 3.49256897 C90.08786713 3.5357645 87.71742375 3.57744981 85.34695435 3.61756897 C81.93117846 3.67564576 78.5155417 3.73923085 75.09988403 3.80384827 C74.04748535 3.82056076 72.99508667 3.83727325 71.91079712 3.85449219 C67.06031557 3.95119421 62.39011157 4.22415764 57.58001709 4.89987183 C52.39114293 5.41992588 47.14900021 5.26165884 41.93972778 5.25306702 C40.65808243 5.25402374 39.37643707 5.25498047 38.05595398 5.25596619 C35.35549704 5.25743275 32.6550734 5.25532194 29.95462036 5.25062561 C26.50955022 5.2449232 23.06455793 5.24821719 19.61949062 5.25419807 C16.30956358 5.25869845 12.99965703 5.25553967 9.68972778 5.25306702 C7.84573647 5.25610336 7.84573647 5.25610336 5.9644928 5.25920105 C-3.55881173 5.23320775 -3.55881173 5.23320775 -7.84909058 4.54164124 C-10.56060736 3.80492241 -10.56060736 3.80492241 -12.24386597 5.24525452 C-12.69761597 5.86400452 -13.15136597 6.48275452 -13.61886597 7.12025452 C-15.28553263 8.78692118 -16.9521993 10.45358785 -18.61886597 12.12025452 C-19.32011597 12.88337952 -20.02136597 13.64650452 -20.74386597 14.43275452 C-22.61886597 16.12025452 -22.61886597 16.12025452 -25.61886597 16.12025452 C-25.61886597 16.78025452 -25.61886597 17.44025452 -25.61886597 18.12025452 C-26.60886597 18.45025452 -27.59886597 18.78025452 -28.61886597 19.12025452 C-29.27886597 19.78025452 -29.93886597 20.44025452 -30.61886597 21.12025452 C-32.61886597 21.87025452 -32.61886597 21.87025452 -34.61886597 22.12025452 C-35.27886597 21.46025452 -35.93886597 20.80025452 -36.61886597 20.12025452 C-35.30636597 18.62025452 -35.30636597 18.62025452 -33.61886597 17.12025452 C-32.62886597 17.12025452 -31.63886597 17.12025452 -30.61886597 17.12025452 C-30.37394409 16.53115295 -30.12902222 15.94205139 -29.87667847 15.33509827 C-26.46345222 9.32485206 -17.84518971 4.03470393 -11.61886597 1.12025452 C-7.70186864 0.34171374 -3.98901423 -0.00388793 0 0 Z " fill="#B24EB5" transform="translate(272.6188659667969,309.87974548339844)"/>
<path d="M0 0 C0.88333948 0.0015486 1.76667896 0.0030972 2.6767863 0.00469273 C4.07335974 0.0012944 4.07335974 0.0012944 5.49814677 -0.00217259 C8.64338879 -0.00854377 11.78858807 -0.00768123 14.93383586 -0.00685817 C17.17875526 -0.00984781 19.42367414 -0.01324989 21.66859233 -0.01703578 C27.78657935 -0.02590212 33.9045524 -0.02821506 40.02254522 -0.02885157 C45.12431598 -0.0297989 50.22608346 -0.03347536 55.32785296 -0.03702366 C66.67679626 -0.04471258 78.02573087 -0.04769139 89.37467588 -0.04701831 C90.0562934 -0.04697836 90.73791092 -0.0469384 91.44018352 -0.04689723 C92.12263263 -0.04685635 92.80508174 -0.04681547 93.50821112 -0.04677335 C104.55796023 -0.04636727 115.60767521 -0.05592547 126.65741445 -0.0700356 C137.99941791 -0.08440468 149.34139955 -0.09112235 160.68341422 -0.09044182 C167.05245787 -0.09018664 173.42146294 -0.09304845 179.79049861 -0.10361987 C185.78386306 -0.11329503 191.77715204 -0.11338397 197.77051914 -0.10610324 C199.9703341 -0.10505652 202.17015374 -0.10742547 204.36996067 -0.1134637 C207.3737734 -0.12117444 210.37732495 -0.11654466 213.38113201 -0.10883266 C214.25108716 -0.11397622 215.12104231 -0.11911978 216.01735973 -0.12441921 C221.02913041 -0.09600048 225.15694817 0.52725189 229.90991008 2.1384055 C229.90991008 2.4684055 229.90991008 2.7984055 229.90991008 3.1384055 C228.77059976 3.13656192 227.63128944 3.13471833 226.45745456 3.13281888 C198.65187973 3.08829086 170.84630955 3.05549303 143.04070652 3.03478116 C140.35648267 3.03274168 137.67225887 3.03065903 134.98803508 3.02854222 C133.98735884 3.02775529 133.98735884 3.02775529 132.96646692 3.02695246 C122.87761734 3.01882304 112.78878689 3.00480353 102.69994915 2.9875266 C90.97072322 2.96750422 79.24151443 2.9546682 67.51227188 2.95022851 C61.30984431 2.94763603 55.10746574 2.94160346 48.90505397 2.92694539 C43.04955262 2.91322122 37.19411977 2.90921236 31.33860385 2.91219014 C29.20636484 2.91164653 27.07412318 2.90775848 24.94189823 2.89999455 C10.82103522 2.85116356 -3.0501633 3.60883236 -17.09008992 5.1384055 C-16.76008992 4.1484055 -16.43008992 3.1584055 -16.09008992 2.1384055 C-15.13296101 2.0475266 -15.13296101 2.0475266 -14.15649617 1.95481175 C-12.91706257 1.82912816 -12.91706257 1.82912816 -11.65258992 1.7009055 C-10.82887898 1.61969456 -10.00516804 1.53848363 -9.15649617 1.45481175 C-5.96169426 0.96562658 -3.59695445 0.01458209 0 0 Z " fill="#C62A99" transform="translate(166.09008991718292,70.8615944981575)"/>
<path d="M0 0 C1.50542582 -0.00407033 3.01084865 -0.00941479 4.51626587 -0.01593018 C8.58652256 -0.02955481 12.65654998 -0.02432531 16.72681046 -0.01479292 C20.99650925 -0.00717108 25.26618907 -0.01424892 29.53588867 -0.01895142 C36.70462551 -0.02440163 43.87326947 -0.01723666 51.04199219 -0.00292969 C59.31724205 0.01339543 67.59227012 0.0081064 75.86751461 -0.0084089 C82.98623261 -0.02204472 90.10488403 -0.0239332 97.22361088 -0.0160929 C101.46929113 -0.01142788 105.7148673 -0.01075916 109.96054077 -0.02070236 C113.95303041 -0.02940033 117.94523549 -0.02329879 121.93769455 -0.00601959 C123.39853825 -0.0020698 124.8594061 -0.00316284 126.32024002 -0.00980759 C142.88040306 -0.07815966 142.88040306 -0.07815966 149.58203125 5.45068359 C151.08203125 7.38818359 151.08203125 7.38818359 151.08203125 9.38818359 C147.78203125 9.05818359 144.48203125 8.72818359 141.08203125 8.38818359 C140.75203125 7.39818359 140.42203125 6.40818359 140.08203125 5.38818359 C140.41203125 4.72818359 140.74203125 4.06818359 141.08203125 3.38818359 C120.60230802 3.31807764 100.12260917 3.26518762 79.64279079 3.23274708 C70.13348312 3.21728347 60.62425003 3.19620361 51.11499023 3.16186523 C42.82594552 3.1319474 34.53695484 3.11260491 26.24785763 3.10591811 C21.8595362 3.1020099 17.47136932 3.09283558 13.08309746 3.07099342 C8.95041191 3.0505906 4.81794422 3.04435745 0.68521309 3.04886055 C-0.8292751 3.04803705 -2.34377078 3.04209395 -3.85821533 3.03056717 C-5.93170695 3.01556302 -8.00438426 3.019258 -10.07789612 3.02742004 C-11.2365899 3.02465466 -12.39528368 3.02188929 -13.58908939 3.01904011 C-17.58187769 3.46180527 -20.3115096 4.65396743 -23.91796875 6.38818359 C-22.91796875 3.38818359 -22.91796875 3.38818359 -19.7878418 1.72494507 C-13.38694747 -0.44459457 -6.67799328 -0.03037551 0 0 Z " fill="#CA43C5" transform="translate(246.91796875,133.61181640625)"/>
<path d="M0 0 C0.33 0 0.66 0 1 0 C1.22514122 10.75409386 1.42632758 21.50835891 1.59840012 32.26344013 C1.67905464 37.25950263 1.76741812 42.25516118 1.87451172 47.25073242 C1.97790045 52.08758115 2.05958752 56.92438728 2.12732697 61.7618618 C2.15654744 63.59120312 2.19309518 65.42044521 2.2377243 67.24947548 C2.61623655 83.10173277 0.90617462 98.62534452 -5.3125 113.375 C-5.61172363 114.10992676 -5.91094727 114.84485352 -6.21923828 115.60205078 C-10.99853557 127.08386859 -16.99976589 137.47182418 -25 147 C-25.33 147 -25.66 147 -26 147 C-26.1875 144.6875 -26.1875 144.6875 -26 142 C-24.5625 140.375 -24.5625 140.375 -23 139 C-22.67 138.01 -22.34 137.02 -22 136 C-21.34 136 -20.68 136 -20 136 C-20 134.02 -20 132.04 -20 130 C-19.01 129.67 -18.02 129.34 -17 129 C-14.77320321 125.65980482 -14.90877899 124.83128253 -15 121 C-14.66666667 119.33333333 -14.33333333 117.66666667 -14 116 C-14.061875 115.13375 -14.12375 114.2675 -14.1875 113.375 C-14 111 -14 111 -12 109.1875 C-11.01 108.5996875 -11.01 108.5996875 -10 108 C-9.505 108.99 -9.505 108.99 -9 110 C-7.55475116 105.57394994 -7.55475116 105.57394994 -7 101 C-6.34 101 -5.68 101 -5 101 C-5.33 99.02 -5.66 97.04 -6 95 C-4.515 95.495 -4.515 95.495 -3 96 C-3 92.04 -3 88.08 -3 84 C-1.515 84.495 -1.515 84.495 0 85 C0 56.95 0 28.9 0 0 Z " fill="#D93FE2" transform="translate(511,154)"/>
<path d="M0 0 C0.88494141 -0.01224609 1.76988281 -0.02449219 2.68164062 -0.03710938 C3.52791016 -0.03904297 4.37417969 -0.04097656 5.24609375 -0.04296875 C6.41483032 -0.04913208 6.41483032 -0.04913208 7.60717773 -0.05541992 C9.5625 0.1875 9.5625 0.1875 11.5625 2.1875 C-4.13414101 3.20777547 -19.8257045 3.45506522 -35.55089951 3.66002274 C-41.91944449 3.74439193 -48.28785017 3.83899634 -54.65625 3.93359375 C-55.35243124 3.94383009 -56.04861248 3.95406643 -56.76589012 3.96461296 C-67.30594573 4.12088032 -77.84055684 4.36436845 -88.37686157 4.68240356 C-115.72058953 5.50456759 -143.08451078 5.27913376 -170.4375 5.1875 C-170.4375 4.5275 -170.4375 3.8675 -170.4375 3.1875 C-172.0875 3.1875 -173.7375 3.1875 -175.4375 3.1875 C-175.4375 2.8575 -175.4375 2.5275 -175.4375 2.1875 C-174.58805596 2.18326806 -173.73861193 2.17903612 -172.86342716 2.17467594 C-152.22536159 2.07151642 -131.58733108 1.96290104 -110.94932652 1.84816074 C-100.96907808 1.79280649 -90.98882607 1.73932094 -81.00854492 1.69018555 C-72.31301613 1.64737062 -63.6175139 1.60109954 -54.9220261 1.55062145 C-50.31487828 1.52399875 -45.7077358 1.49914522 -41.10055733 1.47842598 C-36.76928826 1.45889305 -32.43806984 1.43475952 -28.10684586 1.40700912 C-26.51245604 1.3976209 -24.91805509 1.38995204 -23.32364845 1.38408089 C-21.15630703 1.37584964 -18.98908955 1.36158174 -16.8217926 1.34571838 C-15.60594766 1.33926583 -14.39010271 1.33281328 -13.13741398 1.3261652 C-8.83973318 1.10544011 -4.77829139 0.00346504 0 0 Z " fill="#BE16A1" transform="translate(375.4375,32.8125)"/>
<path d="M0 0 C0.99 0.495 0.99 0.495 2 1 C-0.50969218 5.64293052 -2.69234499 8.04930079 -7.58791161 10.06615829 C-11.7545451 11.20650863 -15.48445658 11.27767394 -19.78091431 11.25396729 C-20.65301525 11.25708727 -21.52511618 11.26020725 -22.42364442 11.26342177 C-25.33930221 11.27138474 -28.2547509 11.26508478 -31.17041016 11.25878906 C-33.26330182 11.26149964 -35.35619252 11.26506094 -37.44908142 11.26940918 C-43.12858943 11.27852638 -48.80802477 11.27499195 -54.48753405 11.26865101 C-60.4287336 11.26358893 -66.36992691 11.26828292 -72.31112671 11.27142334 C-82.28620522 11.2750618 -92.26125411 11.27026642 -102.23632812 11.26074219 C-113.77550617 11.24985192 -125.31461358 11.25338787 -136.85378993 11.264395 C-146.7570823 11.27346416 -156.66035339 11.27475515 -166.56364858 11.26951766 C-172.48035743 11.26639669 -178.39703305 11.26599225 -184.31373978 11.27259064 C-189.87380096 11.27835826 -195.43377081 11.27437787 -200.9938221 11.26280212 C-203.03686814 11.26015268 -205.07992184 11.26092546 -207.12296486 11.26532745 C-209.90643212 11.27077291 -212.68960462 11.26396095 -215.47305298 11.25396729 C-216.28608088 11.25842873 -217.09910878 11.26289017 -217.9367739 11.26748681 C-221.76153294 11.24075499 -224.7608677 11.17285255 -228 9 C-226.65965179 9.00138269 -226.65965179 9.00138269 -225.29222584 9.00279331 C-203.36475065 9.02505489 -181.43727746 9.04151077 -159.50979328 9.05181217 C-148.90504356 9.05692858 -138.30030146 9.06388036 -127.69555664 9.07543945 C-118.43277311 9.08553084 -109.16999511 9.09188708 -99.90720624 9.09408849 C-95.02055658 9.09537157 -90.13392271 9.0982993 -85.24727821 9.10573006 C-65.90907916 9.13391427 -46.5833088 9.06054171 -27.25073242 8.55639648 C-26.07569686 8.5271887 -26.07569686 8.5271887 -24.8769232 8.49739087 C-22.67311649 8.44099564 -20.46959435 8.3783279 -18.26603699 8.31297302 C-16.40629132 8.25891879 -16.40629132 8.25891879 -14.50897503 8.20377254 C-10.96027139 7.99769289 -7.50987389 7.55362818 -4 7 C-3.8453125 6.1028125 -3.8453125 6.1028125 -3.6875 5.1875 C-2.91123545 2.71756736 -1.92911079 1.67748765 0 0 Z " fill="#C251B2" transform="translate(397,232)"/>
<path d="M0 0 C-26.63178021 13.83896098 -55.30336169 14.16662711 -84.65234375 14.09765625 C-87.00745107 14.09578742 -89.36255878 14.09436571 -91.71766663 14.09336853 C-97.86763615 14.08957998 -104.01758145 14.07978165 -110.1675415 14.06866455 C-116.46260246 14.05837101 -122.7576674 14.05385401 -129.05273438 14.04882812 C-141.36850013 14.03815553 -153.68424804 14.02112397 -166 14 C-166 13.67 -166 13.34 -166 13 C-120.955 12.505 -120.955 12.505 -75 12 C-75 11.67 -75 11.34 -75 11 C-73.93040039 10.94465088 -72.86080078 10.88930176 -71.75878906 10.83227539 C-67.78526729 10.62561676 -63.81203416 10.41380201 -59.83886719 10.20043945 C-58.12019146 10.10886535 -56.40144093 10.01868414 -54.68261719 9.92993164 C-52.21007571 9.80201692 -49.73784778 9.66907276 -47.265625 9.53515625 C-46.49881409 9.49656998 -45.73200317 9.4579837 -44.94195557 9.41822815 C-41.49600297 9.22706733 -38.33179022 8.86083215 -35 8 C-33.08639029 7.78351622 -31.16916379 7.59743032 -29.25 7.4375 C-28.26515625 7.35371094 -27.2803125 7.26992188 -26.265625 7.18359375 C-25.51796875 7.12300781 -24.7703125 7.06242187 -24 7 C-24 6.34 -24 5.68 -24 5 C-23.38511719 4.93941406 -22.77023437 4.87882812 -22.13671875 4.81640625 C-21.32847656 4.73261719 -20.52023437 4.64882813 -19.6875 4.5625 C-18.88699219 4.48128906 -18.08648437 4.40007812 -17.26171875 4.31640625 C-14.83912821 4.04734307 -14.83912821 4.04734307 -12 3 C-12 2.34 -12 1.68 -12 1 C-10.37681021 0.63762737 -8.7513642 0.28534843 -7.125 -0.0625 C-6.22007812 -0.25972656 -5.31515625 -0.45695312 -4.3828125 -0.66015625 C-2 -1 -2 -1 0 0 Z " fill="#E05CB2" transform="translate(442,336)"/>
<path d="M0 0 C-111.375 -0.495 -111.375 -0.495 -225 -1 C-225 -1.33 -225 -1.66 -225 -2 C-197.38371726 -2.15400762 -169.76740807 -2.30203781 -142.15105534 -2.4429636 C-129.32814427 -2.50853787 -116.50524905 -2.57606376 -103.68237305 -2.64819336 C-92.50520566 -2.71106077 -81.32802587 -2.77025691 -70.1508159 -2.82505554 C-64.2332926 -2.85419536 -58.31579171 -2.88516609 -52.39830208 -2.92053413 C-46.82604301 -2.95378075 -41.25378035 -2.9821101 -35.68147659 -3.00670624 C-33.63891206 -3.01658195 -31.59635521 -3.02823754 -29.55381203 -3.04183006 C-26.75873848 -3.06016073 -23.96370748 -3.07200471 -21.16859436 -3.08229065 C-19.96475974 -3.09249633 -19.96475974 -3.09249633 -18.73660523 -3.10290819 C-4.69572499 -3.13048333 -4.69572499 -3.13048333 0 0 Z " fill="#E395CE" transform="translate(396,74)"/>
<path d="M0 0 C0.33 0 0.66 0 1 0 C1.01030746 0.55710159 1.02061493 1.11420319 1.03123474 1.68818665 C1.1393002 7.47933692 1.25389827 13.27033161 1.37231445 19.0612793 C1.41566313 21.2233556 1.45733825 23.38546613 1.49731445 25.54760742 C1.55501844 28.65293702 1.61871272 31.75809436 1.68359375 34.86328125 C1.70030624 35.83211746 1.71701874 36.80095367 1.73423767 37.79914856 C1.75418289 38.6998558 1.77412811 39.60056305 1.79467773 40.52856445 C1.81022202 41.32132278 1.8257663 42.11408112 1.84178162 42.93086243 C1.93081226 45.19739774 1.93081226 45.19739774 3 48 C3.06973271 49.54283628 3.08446057 51.08855729 3.0625 52.6328125 C3.05476563 53.52097656 3.04703125 54.40914062 3.0390625 55.32421875 C3.02617188 56.24847656 3.01328125 57.17273438 3 58.125 C2.97460747 59.9608801 2.95353481 61.79682682 2.9375 63.6328125 C2.92589844 64.44637207 2.91429687 65.25993164 2.90234375 66.09814453 C2.78765579 68.01096105 2.78765579 68.01096105 4 69 C4.14115161 71.67058851 4.04247107 74.32432238 4 77 C4.66 77.33 5.32 77.66 6 78 C6.4140625 80.44140625 6.4140625 80.44140625 6.625 83.5625 C6.69847656 84.64144531 6.77195312 85.72039062 6.84765625 86.83203125 C7.02725516 90.56676764 7.07188242 94.26211414 7 98 C4.93232467 94.89848701 4.44308591 93.04938283 3.74609375 89.44140625 C3.53146484 88.33216797 3.31683594 87.22292969 3.09570312 86.08007812 C2.76989258 84.33887695 2.76989258 84.33887695 2.4375 82.5625 C2.21642578 81.43650391 1.99535156 80.31050781 1.76757812 79.15039062 C-0.47262159 67.38088215 -1.15415821 55.83426993 -1.1328125 43.8671875 C-1.13376923 42.66812775 -1.13472595 41.46906799 -1.13571167 40.2336731 C-1.13638706 37.72446642 -1.13457791 35.21525793 -1.13037109 32.70605469 C-1.12496617 28.85087234 -1.13036191 24.995804 -1.13671875 21.140625 C-1.13605878 18.69531224 -1.1347793 16.24999956 -1.1328125 13.8046875 C-1.13483673 12.64959686 -1.13686096 11.49450623 -1.13894653 10.30441284 C-1.13579437 9.24215485 -1.13264221 8.17989685 -1.12939453 7.08544922 C-1.12859894 6.14901581 -1.12780334 5.2125824 -1.12698364 4.24777222 C-1 2 -1 2 0 0 Z " fill="#DE53A7" transform="translate(45,163)"/>
<path d="M0 0 C1.32 0.66 2.64 1.32 4 2 C1.05721495 5.03474709 -1.97431256 7.93065792 -5.125 10.75 C-5.78757813 11.34296875 -6.45015625 11.9359375 -7.1328125 12.546875 C-9 14 -9 14 -12 15 C-13.67958042 16.65365207 -15.34405878 18.32267647 -17 20 C-19.13363502 21.78059713 -21.34235166 23.45414037 -23.5625 25.125 C-24.12646484 25.55425781 -24.69042969 25.98351562 -25.27148438 26.42578125 C-28.17116805 28.63021913 -31.0834519 30.81793712 -34 33 C-34 32.34 -34 31.68 -34 31 C-34.66 31 -35.32 31 -36 31 C-34.7156759 28.13496932 -33.58401213 25.84572295 -31 24 C-27.8125 23.8125 -27.8125 23.8125 -25 24 C-25 21.36 -25 18.72 -25 16 C-23.6078125 15.566875 -23.6078125 15.566875 -22.1875 15.125 C-18.90208333 14.1125 -18.90208333 14.1125 -16 12 C-15.814375 11.175 -15.62875 10.35 -15.4375 9.5 C-14 7 -14 7 -11.72265625 6.23046875 C-8.48006352 5.58381109 -5.31268605 5 -2 5 C-2 4.34 -2 3.68 -2 3 C-1.34 3 -0.68 3 0 3 C0 2.01 0 1.02 0 0 Z " fill="#C814A4" transform="translate(249,363)"/>
<path d="M0 0 C0.9742101 -0.00256327 0.9742101 -0.00256327 1.9681012 -0.00517833 C4.13617093 -0.00846271 6.30392857 0.00251282 8.4719696 0.01345825 C10.02933749 0.01402259 11.58670591 0.01370536 13.14407349 0.01257324 C17.36682993 0.01199963 21.58947266 0.02375538 25.81220269 0.03772116 C30.22712136 0.05022703 34.64204267 0.0513989 39.05697632 0.05377197 C47.41500322 0.05998716 55.77297777 0.07639851 64.13098162 0.09647095 C73.64723323 0.11882874 83.16348734 0.12982308 92.67975867 0.13986182 C112.25334712 0.16076469 131.82688846 0.19594144 151.4004364 0.24050903 C151.4004364 1.23050903 151.4004364 2.22050903 151.4004364 3.24050903 C151.0704364 2.58050903 150.7404364 1.92050903 150.4004364 1.24050903 C99.2504364 1.57050903 48.1004364 1.90050903 -4.5995636 2.24050903 C-4.9295636 3.23050903 -5.2595636 4.22050903 -5.5995636 5.24050903 C-7.9095636 4.91050903 -10.2195636 4.58050903 -12.5995636 4.24050903 C-11.5995636 2.24050903 -11.5995636 2.24050903 -9.44953632 1.13054085 C-6.15541447 0.10180355 -3.45141901 -0.00548279 0 0 Z " fill="#C206BB" transform="translate(236.5995635986328,135.75949096679688)"/>
<path d="M0 0 C0.33 0 0.66 0 1 0 C1 21.45 1 42.9 1 65 C0.67 65 0.34 65 0 65 C-0.07347656 63.95199219 -0.07347656 63.95199219 -0.1484375 62.8828125 C-0.22320312 61.97273438 -0.29796875 61.06265625 -0.375 60.125 C-0.44460937 59.22007812 -0.51421875 58.31515625 -0.5859375 57.3828125 C-0.79568132 54.82058097 -0.79568132 54.82058097 -3 53 C-3.23046875 49.77734375 -3.23046875 49.77734375 -3.1875 45.9375 C-3.18105469 44.66777344 -3.17460938 43.39804688 -3.16796875 42.08984375 C-3 39 -3 39 -2 38 C-1.90018786 35.3226862 -1.86120125 32.67695825 -1.875 30 C-1.87113281 29.24976563 -1.86726563 28.49953125 -1.86328125 27.7265625 C-1.52324459 24.06393883 -1.52324459 24.06393883 -3 21 C-3.12653198 18.50761431 -3.18519825 16.05529559 -3.1875 13.5625 C-3.19974609 12.86833984 -3.21199219 12.17417969 -3.22460938 11.45898438 C-3.22989842 9.63779099 -3.12169207 7.8171308 -3 6 C-2.34 5.34 -1.68 4.68 -1 4 C-0.3574765 1.93125966 -0.3574765 1.93125966 0 0 Z " fill="#BD2792" transform="translate(82,160)"/>
<path d="M0 0 C0.66 0 1.32 0 2 0 C1.67680512 2.92814557 1.15312989 3.86805967 -1.1171875 5.82421875 C-2.02726562 6.43910156 -2.93734375 7.05398438 -3.875 7.6875 C-9.08967101 11.30709517 -13.94859873 15.20454871 -18.78515625 19.3125 C-21 21 -21 21 -23 21 C-23 21.66 -23 22.32 -23 23 C-24.32 23.33 -25.64 23.66 -27 24 C-27 21 -27 21 -25.5 19.3125 C-25.005 18.879375 -24.51 18.44625 -24 18 C-25.32 18 -26.64 18 -28 18 C-27.49396008 15.83125748 -27.00016187 14.00032373 -26 12 C-23.03 12.33 -20.06 12.66 -17 13 C-16.67 10.69 -16.34 8.38 -16 6 C-14.68 6 -13.36 6 -12 6 C-11.67 5.34 -11.34 4.68 -11 4 C-10.34 4 -9.68 4 -9 4 C-8.67 4.66 -8.34 5.32 -8 6 C-7.4225 5.505 -6.845 5.01 -6.25 4.5 C-4 3 -4 3 0 3 C0 2.01 0 1.02 0 0 Z " fill="#CD11A5" transform="translate(210,396)"/>
<path d="M0 0 C0.33 0 0.66 0 1 0 C1 23.43 1 46.86 1 71 C1.66 71 2.32 71 3 71 C3.99 74.465 3.99 74.465 5 78 C5.928125 78.185625 5.928125 78.185625 6.875 78.375 C9 79 9 79 11 81 C11.33 79.68 11.66 78.36 12 77 C13.32 77 14.64 77 16 77 C16.12375 77.61875 16.2475 78.2375 16.375 78.875 C16.87197356 81.19120832 16.87197356 81.19120832 19 83 C17.515 83.99 17.515 83.99 16 85 C19.3 85.33 22.6 85.66 26 86 C26 86.33 26 86.66 26 87 C18.94912322 87.52881576 13.46434752 87.73229952 7.6171875 83.42578125 C2.87709064 79.24671034 0.21731193 75.01304196 -0.24050903 68.66532898 C-0.23606781 67.39735977 -0.23162659 66.12939056 -0.22705078 64.82299805 C-0.22734283 64.12001083 -0.22763489 63.41702362 -0.22793579 62.69273376 C-0.22654877 60.38226738 -0.2110175 58.07212841 -0.1953125 55.76171875 C-0.19158013 54.15460893 -0.18873422 52.54749683 -0.18673706 50.94038391 C-0.17911821 46.7202623 -0.15948483 42.50027939 -0.1373291 38.2802124 C-0.11683293 33.97003048 -0.10772729 29.65982604 -0.09765625 25.34960938 C-0.07623721 16.89967609 -0.04212248 8.44985532 0 0 Z " fill="#C7279B" transform="translate(142,345)"/>
<path d="M0 0 C0.495 0.99 0.495 0.99 1 2 C-2.12629201 2.92388385 -4.88697837 3.10483151 -8.140625 3.0625 C-9.62369141 3.05089844 -9.62369141 3.05089844 -11.13671875 3.0390625 C-13.19661705 3.01321685 -15.25651294 2.98717818 -17.31640625 2.9609375 C-22.97263531 2.91692015 -28.42897968 2.953799 -34 4 C-34.33 4.66 -34.66 5.32 -35 6 C-35 5.34 -35 4.68 -35 4 C-43.75415487 4.43620359 -52.53656614 5.02437743 -60 10 C-62.04296875 10.1953125 -62.04296875 10.1953125 -64.1875 10.125 C-66.0746875 10.063125 -66.0746875 10.063125 -68 10 C-61.03792703 5.35861802 -53.04175992 3.19402726 -44.875 1.75 C-43.92230225 1.58016602 -42.96960449 1.41033203 -41.98803711 1.23535156 C-28.12358442 -0.93989364 -13.98639103 -0.34511357 0 0 Z " fill="#C33FA6" transform="translate(195,33)"/>
<path d="M0 0 C2.81297336 1.40648668 3.45373351 3.26429774 5 6 C5.66 7.051875 6.32 8.10375 7 9.1875 C9.09582154 12.83725767 10.15935141 16.60053257 11.2734375 20.640625 C11.99558307 23.22553306 11.99558307 23.22553306 13.6875 26.3125 C15.0753328 29.15425287 15.2749245 30.88418897 15 34 C14.34 32.68 13.68 31.36 13 30 C12.34 30 11.68 30 11 30 C10.67 30.99 10.34 31.98 10 33 C9.34 32.67 8.68 32.34 8 32 C8.04125 31.05125 8.0825 30.1025 8.125 29.125 C8.11527413 24.36904879 7.54154055 19.50921219 6 15 C5.01 14.34 4.02 13.68 3 13 C3 12.34 3 11.68 3 11 C2.38125 10.690625 1.7625 10.38125 1.125 10.0625 C-0.25 9.375 -1.625 8.6875 -3 8 C-2.67 7.01 -2.34 6.02 -2 5 C-1.34 5 -0.68 5 0 5 C0 3.35 0 1.7 0 0 Z " fill="#DE06C9" transform="translate(489,87)"/>
<path d="M0 0 C0.99 0.495 0.99 0.495 2 1 C-0.53490936 5.68958231 -2.72052555 8.0978987 -7.69827271 10.06784058 C-11.29789919 11.08410432 -14.27848199 11.24073816 -18.01513672 11.22705078 C-19.02594551 11.22748886 -19.02594551 11.22748886 -20.05717468 11.22793579 C-22.26481404 11.22655235 -24.47210775 11.21103834 -26.6796875 11.1953125 C-28.21810726 11.19157885 -29.7565294 11.18873354 -31.29495239 11.18673706 C-35.3292913 11.17912829 -39.36348448 11.15950372 -43.39776611 11.1373291 C-47.5203657 11.11681108 -51.64298899 11.10772264 -55.765625 11.09765625 C-63.84381661 11.07625501 -71.92189014 11.04215264 -80 11 C-80 10.67 -80 10.34 -80 10 C-78.72666054 9.96574669 -78.72666054 9.96574669 -77.42759705 9.93080139 C-69.40936268 9.71439128 -61.39124613 9.49410308 -53.37323666 9.26950932 C-49.25156462 9.15419201 -45.12986306 9.04034996 -41.00805664 8.92993164 C-37.02683406 8.82322421 -33.04573848 8.7125733 -29.06469917 8.59924126 C-27.54938146 8.55678649 -26.03402391 8.51572865 -24.51862907 8.4761219 C-22.38851635 8.42020481 -20.2586022 8.35922436 -18.12866211 8.29711914 C-16.9184288 8.26380997 -15.7081955 8.23050079 -14.46128845 8.19618225 C-10.92809178 7.99592432 -7.49428735 7.55075388 -4 7 C-3.896875 6.401875 -3.79375 5.80375 -3.6875 5.1875 C-2.91123545 2.71756736 -1.92911079 1.67748765 0 0 Z " fill="#C558B3" transform="translate(397,232)"/>
<path d="M0 0 C-0.33 0.66 -0.66 1.32 -1 2 C-1.99 2.33 -2.98 2.66 -4 3 C-5.4587688 4.29078411 -5.4587688 4.29078411 -7 6 C-8.66666667 7.66666667 -10.33333333 9.33333333 -12 11 C-12.70125 11.763125 -13.4025 12.52625 -14.125 13.3125 C-16 15 -16 15 -19 15 C-19 15.66 -19 16.32 -19 17 C-19.99 17.33 -20.98 17.66 -22 18 C-22.66 18.66 -23.32 19.32 -24 20 C-26 20.75 -26 20.75 -28 21 C-28.66 20.34 -29.32 19.68 -30 19 C-28.6875 17.5 -28.6875 17.5 -27 16 C-26.01 16 -25.02 16 -24 16 C-23.63261719 15.11634766 -23.63261719 15.11634766 -23.2578125 14.21484375 C-19.61918549 7.80769618 -7.69369597 -1.20213999 0 0 Z " fill="#CA14A1" transform="translate(266,311)"/>
<path d="M0 0 C0.33 0 0.66 0 1 0 C1.20111696 10.85783566 1.38472123 21.71581739 1.54658794 32.57431316 C1.62230381 37.6175209 1.70382289 42.66048951 1.79907227 47.70336914 C1.89094396 52.57913905 1.96696059 57.45493218 2.03244972 62.33112526 C2.06000702 64.18212772 2.0930698 66.0330575 2.13199425 67.88385582 C2.34952274 78.41580233 2.09768853 87.83252096 -1 98 C-1.33 98 -1.66 98 -2 98 C-2.33 93.38 -2.66 88.76 -3 84 C-2.01 84.33 -1.02 84.66 0 85 C0 56.95 0 28.9 0 0 Z " fill="#D018E9" transform="translate(511,154)"/>
<path d="M0 0 C2.64 0 5.28 0 8 0 C6.6875 1.5 6.6875 1.5 5 3 C4.01 3 3.02 3 2 3 C1.67 3.99 1.34 4.98 1 6 C-0.75 7.5078125 -0.75 7.5078125 -3 9.125 C-9.1803661 13.78738144 -15.24547635 18.97947027 -19.4375 25.5625 C-19.953125 26.366875 -20.46875 27.17125 -21 28 C-21.66 28 -22.32 28 -23 28 C-23.33 28.99 -23.66 29.98 -24 31 C-24.125 27.625 -24.125 27.625 -24 24 C-23.34 23.34 -22.68 22.68 -22 22 C-21.01 22 -20.02 22 -19 22 C-19 20.68 -19 19.36 -19 18 C-18.01 18 -17.02 18 -16 18 C-16 17.01 -16 16.02 -16 15 C-11.77777778 12 -11.77777778 12 -9 12 C-9 10.68 -9 9.36 -9 8 C-7.68 7.67 -6.36 7.34 -5 7 C-5 6.34 -5 5.68 -5 5 C-3.35 4.67 -1.7 4.34 0 4 C0 2.68 0 1.36 0 0 Z " fill="#D641A5" transform="translate(123,84)"/>
<path d="M0 0 C0.99 0 1.98 0 3 0 C2.45663339 4.93558006 0.85670452 8.81683398 -1.5 13.125 C-1.84877197 13.77154541 -2.19754395 14.41809082 -2.55688477 15.08422852 C-6.10635939 21.48647849 -10.25322234 27.42227658 -15 33 C-15.33 33 -15.66 33 -16 33 C-16.1875 30.6875 -16.1875 30.6875 -16 28 C-14.5625 26.375 -14.5625 26.375 -13 25 C-12.67 24.01 -12.34 23.02 -12 22 C-11.34 22 -10.68 22 -10 22 C-10 20.02 -10 18.04 -10 16 C-9.01 15.67 -8.02 15.34 -7 15 C-5.54355243 12.91187542 -5.54355243 12.91187542 -4.3125 10.4375 C-3.87550781 9.61121094 -3.43851562 8.78492188 -2.98828125 7.93359375 C-2.66214844 7.29550781 -2.33601563 6.65742188 -2 6 C-1.34 6 -0.68 6 0 6 C0 4.02 0 2.04 0 0 Z " fill="#D740D5" transform="translate(501,268)"/>
<path d="M0 0 C0.9215538 0.00222061 1.8431076 0.00444122 2.79258728 0.00672913 C3.83359085 0.00680466 4.87459442 0.00688019 5.94714355 0.00695801 C7.07941879 0.01211929 8.21169403 0.01728058 9.37828064 0.02259827 C10.53106003 0.02401321 11.68383942 0.02542816 12.87155151 0.02688599 C16.57043503 0.03250446 20.26925903 0.0450601 23.96812439 0.05775452 C26.46877456 0.06276714 28.96942567 0.06733045 31.47007751 0.07142639 C37.61528027 0.0824799 43.76044808 0.099236 49.90562439 0.12025452 C49.90562439 0.45025452 49.90562439 0.78025452 49.90562439 1.12025452 C36.37562439 1.12025452 22.84562439 1.12025452 8.90562439 1.12025452 C8.90562439 1.78025452 8.90562439 2.44025452 8.90562439 3.12025452 C1.64562439 3.78025452 -5.61437561 4.44025452 -13.09437561 5.12025452 C-12.76437561 4.13025452 -12.43437561 3.14025452 -12.09437561 2.12025452 C-11.1372467 2.02937561 -11.1372467 2.02937561 -10.16078186 1.93666077 C-8.92134827 1.81097717 -8.92134827 1.81097717 -7.65687561 1.68275452 C-6.83316467 1.60154358 -6.00945374 1.52033264 -5.16078186 1.43666077 C-2.74969079 1.06747669 -2.4468206 0.14049115 0 0 Z " fill="#BE239A" transform="translate(162.09437561035156,70.87974548339844)"/>
<path d="M0 0 C1.29307226 0.41228391 2.58434733 0.83020294 3.875 1.25 C4.59429687 1.48203125 5.31359375 1.7140625 6.0546875 1.953125 C9 3 9 3 11.07275391 3.94042969 C18.15897873 7.07413824 24.95005293 8.02271962 32.625 8.75 C33.81996094 8.87503906 35.01492187 9.00007813 36.24609375 9.12890625 C39.16299663 9.43226415 42.08055989 9.72232369 45 10 C45 10.33 45 10.66 45 11 C41.54174064 11.05898369 38.0836138 11.09392131 34.625 11.125 C33.65949219 11.14175781 32.69398438 11.15851563 31.69921875 11.17578125 C25.88505889 11.21480246 20.62794084 10.72128983 14.97412109 9.33544922 C12.93109151 8.78831676 12.93109151 8.78831676 11 10 C9.5 8.6875 9.5 8.6875 8 7 C8 6.01 8 5.02 8 4 C7.05125 3.855625 6.1025 3.71125 5.125 3.5625 C2 3 2 3 0 2 C0 1.34 0 0.68 0 0 Z " fill="#D44BAE" transform="translate(132,300)"/>
<path d="M0 0 C-0.33 1.32 -0.66 2.64 -1 4 C-1.66 4 -2.32 4 -3 4 C-3.33 5.32 -3.66 6.64 -4 8 C-4.66 8 -5.32 8 -6 8 C-6 8.66 -6 9.32 -6 10 C-5.34 10.33 -4.68 10.66 -4 11 C-5.09601169 12.00893131 -6.20213918 13.00688225 -7.3125 14 C-7.92738281 14.556875 -8.54226562 15.11375 -9.17578125 15.6875 C-11 17 -11 17 -14 17 C-16.33075929 17.95865509 -16.33075929 17.95865509 -18 21 C-18.1875 18.625 -18.1875 18.625 -18 16 C-17.01 15.34 -16.02 14.68 -15 14 C-14.5359375 13.01 -14.5359375 13.01 -14.0625 12 C-13 10 -13 10 -11.125 9.1875 C-8.67342501 7.81750221 -8.22921711 6.872461 -6.9375 4.4375 C-4.86956092 0.76857583 -4.17089341 0 0 0 Z " fill="#E20D94" transform="translate(97,62)"/>
<path d="M0 0 C0.33 0.66 0.66 1.32 1 2 C-3.08053002 7.26173607 -7.24115061 10.79880676 -12.828125 14.421875 C-15.23794212 15.98094075 -15.23794212 15.98094075 -17 19 C-19.62356462 19.98515378 -22.24524123 20.42238929 -25 21 C-23.89014746 17.67044238 -23.22791603 17.14115079 -20.5078125 15.1171875 C-19.45013672 14.32634766 -19.45013672 14.32634766 -18.37109375 13.51953125 C-17.62988281 12.97683594 -16.88867188 12.43414062 -16.125 11.875 C-15.39152344 11.32457031 -14.65804687 10.77414062 -13.90234375 10.20703125 C-8.41336496 6.13778832 -8.41336496 6.13778832 -5 5 C-5 4.34 -5 3.68 -5 3 C-2.5 1.375 -2.5 1.375 0 0 Z " fill="#C739AA" transform="translate(235,331)"/>
<path d="M0 0 C1.05602687 3.66036382 0.91217967 6.2683559 0 10 C-0.99 10.495 -0.99 10.495 -2 11 C-2.23714761 12.62615503 -2.46641368 14.25391467 -2.65234375 15.88671875 C-3.39415222 20.39591404 -4.95716851 24.91433702 -7 29 C-7.20418935 30.99651809 -7.36522296 32.99759821 -7.5 35 C-7.88888889 40.77777778 -7.88888889 40.77777778 -9 43 C-9.22622081 44.70363822 -9.40888473 46.41328701 -9.5625 48.125 C-9.64628906 49.03507812 -9.73007812 49.94515625 -9.81640625 50.8828125 C-9.87699219 51.58148438 -9.93757813 52.28015625 -10 53 C-10.33 53 -10.66 53 -11 53 C-12.42180244 34.76933312 -7.03218844 16.65009565 0 0 Z " fill="#DF57A9" transform="translate(56,109)"/>
<path d="M0 0 C0 0.66 0 1.32 0 2 C-1.3894043 3.26513672 -1.3894043 3.26513672 -3.32421875 4.6796875 C-4.02353516 5.19660156 -4.72285156 5.71351563 -5.44335938 6.24609375 C-6.18392578 6.78363281 -6.92449219 7.32117188 -7.6875 7.875 C-9.12941274 8.93420668 -10.57083007 9.99408816 -12.01171875 11.0546875 C-12.69669434 11.55709961 -13.38166992 12.05951172 -14.08740234 12.57714844 C-16.43939022 14.3268785 -18.72953227 16.1460086 -21 18 C-21 17.34 -21 16.68 -21 16 C-21.66 16 -22.32 16 -23 16 C-21.7156759 13.13496932 -20.58401213 10.84572295 -18 9 C-14.8125 8.8125 -14.8125 8.8125 -12 9 C-12 8.01 -12 7.02 -12 6 C-10.68 6 -9.36 6 -8 6 C-8.33 5.01 -8.66 4.02 -9 3 C-2.25 0 -2.25 0 0 0 Z " fill="#C747AC" transform="translate(236,378)"/>
<path d="M0 0 C1.98 0.495 1.98 0.495 4 1 C4 21.13 4 41.26 4 62 C5.32 61.34 6.64 60.68 8 60 C8 61.32 8 62.64 8 64 C6.35 64 4.7 64 3 64 C3 43.54 3 23.08 3 2 C1.68 1.67 0.36 1.34 -1 1 C-0.67 0.67 -0.34 0.34 0 0 Z " fill="#BA489F" transform="translate(177,311)"/>
<path d="M0 0 C-0.33 0.66 -0.66 1.32 -1 2 C-2.423125 1.2575 -2.423125 1.2575 -3.875 0.5 C-9.64363891 -1.99073615 -16.02749244 -1.7025079 -22 0 C-22 0.99 -22 1.98 -22 3 C-22.66 3 -23.32 3 -24 3 C-24.33 3.66 -24.66 4.32 -25 5 C-26.98 5 -28.96 5 -31 5 C-22.99811288 -5.91166426 -11.33338568 -6.8427989 0 0 Z " fill="#C84FB4" transform="translate(193,137)"/>
<path d="M0 0 C2.38564077 0.57584432 4.66682784 1.22227595 7 2 C7 2.66 7 3.32 7 4 C8.32 4.33 9.64 4.66 11 5 C8.51565563 7.34290892 7.22268407 7.97982934 3.765625 8.29296875 C2.60546875 8.25816406 1.4453125 8.22335937 0.25 8.1875 C-0.92046875 8.16042969 -2.0909375 8.13335937 -3.296875 8.10546875 C-4.18890625 8.07066406 -5.0809375 8.03585937 -6 8 C-6 5 -6 5 -4 3 C-2.68 3 -1.36 3 0 3 C0 2.01 0 1.02 0 0 Z " fill="#D010A2" transform="translate(163,423)"/>
<path d="M0 0 C-0.33 0.99 -0.66 1.98 -1 3 C-1.99 3 -2.98 3 -4 3 C-6.16666667 3.66666667 -6.16666667 3.66666667 -8 5 C-8.80528889 7.05000871 -8.80528889 7.05000871 -9 9 C-9.99 9 -10.98 9 -12 9 C-14.3514852 9.95653635 -16.68745988 10.95281202 -19 12 C-17.63467935 6.36805233 -13.4399677 3.33639191 -9 0 C-5.2397346 -2.13651443 -3.63977965 -2.42651976 0 0 Z " fill="#E60E8E" transform="translate(456,285)"/>
<path d="M0 0 C0.99 0.66 1.98 1.32 3 2 C3.1875 5.625 3.1875 5.625 3 9 C4.32 9 5.64 9 7 9 C8.68933922 10.6436814 10.35259924 12.3142876 12 14 C14.27567017 15.48392659 16.59467918 16.72659486 19 18 C19 18.66 19 19.32 19 20 C14.21136807 18.35390778 10.217141 15.7374424 6 13 C5.39027344 12.62230469 4.78054687 12.24460937 4.15234375 11.85546875 C2.73184913 10.95884448 1.35998652 9.98599022 0 9 C0 8.34 0 7.68 0 7 C-0.9590625 6.566875 -0.9590625 6.566875 -1.9375 6.125 C-4 5 -4 5 -5 3 C-3.68 3.33 -2.36 3.66 -1 4 C-0.67 2.68 -0.34 1.36 0 0 Z " fill="#D7319D" transform="translate(93,312)"/>
<path d="M0 0 C5.0497208 0.48092579 8.2267458 1.55485486 12 5 C15.70665229 11.82335693 16.48438875 17.45435719 15 25 C14.67 25 14.34 25 14 25 C14 22.03 14 19.06 14 16 C13.34 16 12.68 16 12 16 C11.34 12.7 10.68 9.4 10 6 C8.35 6 6.7 6 5 6 C5 5.01 5 4.02 5 3 C3.35 2.67 1.7 2.34 0 2 C0 1.34 0 0.68 0 0 Z " fill="#C43CB1" transform="translate(385,206)"/>
<path d="M0 0 C0.88494141 -0.01224609 1.76988281 -0.02449219 2.68164062 -0.03710938 C3.52791016 -0.03904297 4.37417969 -0.04097656 5.24609375 -0.04296875 C6.02525146 -0.04707764 6.80440918 -0.05118652 7.60717773 -0.05541992 C9.5625 0.1875 9.5625 0.1875 11.5625 2.1875 C-5.43236913 3.41393385 -22.41022067 3.29000747 -39.4375 3.1875 C-39.4375 2.8575 -39.4375 2.5275 -39.4375 2.1875 C-38.56424072 2.16244385 -37.69098145 2.1373877 -36.79125977 2.11157227 C-33.56147448 2.01662291 -30.33185846 1.91737971 -27.10229492 1.81518555 C-25.70260801 1.77178566 -24.30286641 1.73011436 -22.90307617 1.69018555 C-20.89488505 1.63260555 -18.88688851 1.56836 -16.87890625 1.50390625 C-15.66920166 1.46724854 -14.45949707 1.43059082 -13.21313477 1.39282227 C-8.82367002 1.06812002 -4.86121786 0.00352518 0 0 Z " fill="#C62093" transform="translate(375.4375,32.8125)"/>
<path d="M0 0 C-5.4965287 2.86964862 -10.93030542 5.23353108 -16.8125 7.1875 C-17.59351074 7.44869629 -18.37452148 7.70989258 -19.17919922 7.97900391 C-25.08775687 9.87691904 -30.76613878 10.97253806 -37 11 C-34.47519307 8.47519307 -32.86176966 8.44261367 -29.375 7.875 C-28.37210937 7.70742188 -27.36921875 7.53984375 -26.3359375 7.3671875 C-25.17964844 7.18542969 -25.17964844 7.18542969 -24 7 C-24 6.34 -24 5.68 -24 5 C-23.07767578 4.90912109 -23.07767578 4.90912109 -22.13671875 4.81640625 C-21.32847656 4.73261719 -20.52023437 4.64882813 -19.6875 4.5625 C-18.48673828 4.44068359 -18.48673828 4.44068359 -17.26171875 4.31640625 C-14.83912821 4.04734307 -14.83912821 4.04734307 -12 3 C-12 2.34 -12 1.68 -12 1 C-10.37681021 0.63762737 -8.7513642 0.28534843 -7.125 -0.0625 C-6.22007812 -0.25972656 -5.31515625 -0.45695312 -4.3828125 -0.66015625 C-2 -1 -2 -1 0 0 Z " fill="#D9409D" transform="translate(442,336)"/>
<path d="M0 0 C0.66 0.33 1.32 0.66 2 1 C-0.5723277 5.75880624 -2.82798417 8.27599472 -8 10 C-9.33528807 10.08544291 -10.67443888 10.11774625 -12.01245117 10.11352539 C-12.81305466 10.11344986 -13.61365814 10.11337433 -14.43852234 10.11329651 C-15.29798965 10.10813522 -16.15745697 10.10297394 -17.04296875 10.09765625 C-17.9265657 10.0962413 -18.81016266 10.09482635 -19.72053528 10.09336853 C-22.54289128 10.08777069 -25.36516797 10.07521861 -28.1875 10.0625 C-30.10091031 10.05748472 -32.01432187 10.05292186 -33.92773438 10.04882812 C-38.61852014 10.03780197 -43.30924663 10.02053883 -48 10 C-48 9.67 -48 9.34 -48 9 C-46.91581787 8.97494385 -45.83163574 8.9498877 -44.71459961 8.92407227 C-40.66843091 8.82946071 -36.62241253 8.72937414 -32.57641602 8.62768555 C-30.82970715 8.58453898 -29.0829616 8.54285083 -27.33618164 8.50268555 C-24.81645684 8.44448831 -22.29691329 8.38094003 -19.77734375 8.31640625 C-19.00414291 8.29969376 -18.23094208 8.28298126 -17.43431091 8.26576233 C-12.87815027 8.14299979 -8.49965725 7.73213879 -4 7 C-3.896875 6.401875 -3.79375 5.80375 -3.6875 5.1875 C-2.91123545 2.71756736 -1.92911079 1.67748765 0 0 Z " fill="#C01CA4" transform="translate(397,232)"/>
<path d="M0 0 C6.75 0.875 6.75 0.875 9 2 C9 2.66 9 3.32 9 4 C7.68 4 6.36 4 5 4 C5 5.65 5 7.3 5 9 C4.34 9 3.68 9 3 9 C3 9.66 3 10.32 3 11 C1.68 11.33 0.36 11.66 -1 12 C-1 9 -1 9 0.5 7.3125 C0.995 6.879375 1.49 6.44625 2 6 C0.68 6 -0.64 6 -2 6 C-1.49396008 3.83125748 -1.00016187 2.00032373 0 0 Z " fill="#CA23A7" transform="translate(184,408)"/>
<path d="M0 0 C-3.625 5.875 -3.625 5.875 -7 7 C-8.14814997 9.29629994 -8.30769809 11.07698086 -8.5625 13.625 C-8.64628906 14.44226563 -8.73007813 15.25953125 -8.81640625 16.1015625 C-8.87699219 16.72804687 -8.93757812 17.35453125 -9 18 C-9.66 18 -10.32 18 -11 18 C-11.62277751 7.15329169 -11.62277751 7.15329169 -9.3125 2.875 C-3.56701031 -1.78350515 -3.56701031 -1.78350515 0 0 Z " fill="#C11DA8" transform="translate(170,212)"/>
<path d="M0 0 C0.33 0 0.66 0 1 0 C1.738041 14.78132118 1.738041 14.78132118 -3 21 C-3.66 21 -4.32 21 -5 21 C-5 21.66 -5 22.32 -5 23 C-6.65 23.66 -8.3 24.32 -10 25 C-9.505 23.515 -9.505 23.515 -9 22 C-8.34 22 -7.68 22 -7 22 C-7 21.01 -7 20.02 -7 19 C-5.68 19 -4.36 19 -3 19 C-2.95101562 17.96359375 -2.90203125 16.9271875 -2.8515625 15.859375 C-2.77650403 14.48955792 -2.70095753 13.11976752 -2.625 11.75 C-2.57859375 10.72712891 -2.57859375 10.72712891 -2.53125 9.68359375 C-2.31740626 6.01260962 -1.98922945 3.13748384 0 0 Z " fill="#C338B0" transform="translate(198,146)"/>
<path d="M0 0 C0 0.33 0 0.66 0 1 C-0.95253662 1.20363159 -0.95253662 1.20363159 -1.92431641 1.41137695 C-4.82641608 2.03673365 -7.72565523 2.6744979 -10.625 3.3125 C-11.62402344 3.52583984 -12.62304688 3.73917969 -13.65234375 3.95898438 C-18.88136907 5.11906615 -23.2319897 6.49970191 -28 9 C-30.7594775 9.34608832 -33.20155262 9.14474728 -36 9 C-29.49409893 4.66273262 -22.42048338 2.69272646 -14.8125 1.25 C-14.14774658 1.12246338 -13.48299316 0.99492676 -12.7980957 0.86352539 C-8.48961719 0.10112854 -4.36926667 -0.11334025 0 0 Z " fill="#D267B4" transform="translate(163,34)"/>
<path d="M0 0 C1.32 0 2.64 0 4 0 C1.97543768 4.93745301 -1.29500877 6.012471 -6 8 C-9.85148384 9.51038582 -12.86244999 10.24338529 -17 10 C-15 8 -15 8 -12 7 C-12 6.34 -12 5.68 -12 5 C-9.03 5.495 -9.03 5.495 -6 6 C-6.33 4.68 -6.66 3.36 -7 2 C-4 1 -4 1 -1 2 C-0.67 1.34 -0.34 0.68 0 0 Z " fill="#DD2994" transform="translate(450,327)"/>
<path d="M0 0 C0 0.66 0 1.32 0 2 C-1.28913487 2.67154933 -2.58140204 3.33708859 -3.875 4 C-4.59429687 4.37125 -5.31359375 4.7425 -6.0546875 5.125 C-8 6 -8 6 -10 6 C-10.226875 6.61875 -10.45375 7.2375 -10.6875 7.875 C-12.39608617 10.64128237 -13.99992221 10.90241056 -17 12 C-17.495 12.515625 -17.99 13.03125 -18.5 13.5625 C-20.50706089 15.48593335 -22.29667526 15.63468585 -25 16 C-19.43060015 9.87366017 -8.71462074 0 0 0 Z " fill="#D658B0" transform="translate(118,47)"/>
<path d="M0 0 C0 0.66 0 1.32 0 2 C-1.0725 2.226875 -2.145 2.45375 -3.25 2.6875 C-7.37218701 4.13026545 -8.64414523 5.41910075 -11 9 C-10.34 9 -9.68 9 -9 9 C-9 9.66 -9 10.32 -9 11 C-9.99 11.33 -10.98 11.66 -12 12 C-12.99 11.01 -13.98 10.02 -15 9 C-14.1875 6.5625 -14.1875 6.5625 -13 4 C-12.01 3.67 -11.02 3.34 -10 3 C-10 2.34 -10 1.68 -10 1 C-6.1496895 -1.56687367 -4.41430237 -0.83288724 0 0 Z " fill="#C716A3" transform="translate(224,385)"/>
<path d="M0 0 C0.66 0 1.32 0 2 0 C3.90079664 4.01535068 4.23570807 7.18996591 4.1953125 11.61328125 C4.18886719 12.86044922 4.18242187 14.10761719 4.17578125 15.39257812 C4.15902344 16.68615234 4.14226562 17.97972656 4.125 19.3125 C4.11597656 20.62541016 4.10695313 21.93832031 4.09765625 23.29101562 C4.07411797 26.52752913 4.0412352 29.76367149 4 33 C3.67 33 3.34 33 3 33 C3 27.06 3 21.12 3 15 C2.34 15 1.68 15 1 15 C0.67 10.05 0.34 5.1 0 0 Z " fill="#DB41B4" transform="translate(473,148)"/>
<path d="M0 0 C2.125 0.9375 2.125 0.9375 4 2 C-0.75 5 -0.75 5 -3 5 C-4.20628008 7.33214148 -5.1654738 9.49642139 -6 12 C-8.47739354 12.90837763 -10.33579484 13 -13 13 C-13.66 12.67 -14.32 12.34 -15 12 C-13.37982158 10.66081194 -11.75370657 9.3288031 -10.125 8 C-9.22007812 7.2575 -8.31515625 6.515 -7.3828125 5.75 C-5 4 -5 4 -3 4 C-2.67 3.01 -2.34 2.02 -2 1 C-1.34 0.67 -0.68 0.34 0 0 Z " fill="#C74AB2" transform="translate(208,352)"/>
<path d="M0 0 C-15.84 -0.33 -31.68 -0.66 -48 -1 C-48 -1.33 -48 -1.66 -48 -2 C-43.0380762 -2.16896057 -38.0759727 -2.32936176 -33.11352539 -2.48217773 C-31.42888124 -2.53522089 -29.74430629 -2.59051541 -28.05981445 -2.64819336 C-25.62466353 -2.73116887 -23.18937045 -2.80577635 -20.75390625 -2.87890625 C-19.64239952 -2.91945885 -19.64239952 -2.91945885 -18.50843811 -2.96083069 C-5.00648302 -3.33765535 -5.00648302 -3.33765535 0 0 Z " fill="#E78FC6" transform="translate(396,74)"/>
<path d="M0 0 C0.33 0.66 0.66 1.32 1 2 C1.66 2 2.32 2 3 2 C6.29944235 6.81168676 8.33642011 11.11264806 8 17 C7.34 15.68 6.68 14.36 6 13 C5.34 13 4.68 13 4 13 C3.67 13.99 3.34 14.98 3 16 C2.34 15.67 1.68 15.34 1 15 C1.020625 14.01 1.04125 13.02 1.0625 12 C1.07081428 7.93431926 0.56468467 4.02337824 0 0 Z " fill="#DC05DB" transform="translate(496,104)"/>
<path d="M0 0 C0.66 0.66 1.32 1.32 2 2 C2.66 1.67 3.32 1.34 4 1 C4 2.65 4 4.3 4 6 C3.01 6 2.02 6 1 6 C1 7.98 1 9.96 1 12 C0.34 12 -0.32 12 -1 12 C-1.33 13.32 -1.66 14.64 -2 16 C-4 13 -4 13 -3.625 10.625 C-3.41875 9.75875 -3.2125 8.8925 -3 8 C-3.04125 7.13375 -3.0825 6.2675 -3.125 5.375 C-3 3 -3 3 -1.5 1.1875 C-1.005 0.795625 -0.51 0.40375 0 0 Z " fill="#DE03DE" transform="translate(500,262)"/>
<path d="M0 0 C-0.66 0.66 -1.32 1.32 -2 2 C-2.99 2 -3.98 2 -5 2 C-5.12375 2.598125 -5.2475 3.19625 -5.375 3.8125 C-6 6 -6 6 -8 9 C-8.66 7.35 -9.32 5.7 -10 4 C-10.495 4.33 -10.99 4.66 -11.5 5 C-15.09090894 6.43636358 -18.14456127 6.12851462 -22 6 C-22 5.67 -22 5.34 -22 5 C-20.88625 4.7525 -19.7725 4.505 -18.625 4.25 C-14.29570814 3.19463882 -10.35265865 1.53471719 -6.296875 -0.29296875 C-3.73232418 -1.08239681 -2.49015297 -0.89668352 0 0 Z " fill="#DD399F" transform="translate(426,303)"/>
<path d="M0 0 C0.33 0 0.66 0 1 0 C0.40380045 4.86896303 -0.56976822 9.32790951 -2 14 C-3.32 14.33 -4.64 14.66 -6 15 C-6.2475 16.093125 -6.495 17.18625 -6.75 18.3125 C-8.02002851 22.05908409 -8.65756352 23.10595266 -12 25 C-12.66 24.67 -13.32 24.34 -14 24 C-13.41347656 23.28457031 -12.82695312 22.56914062 -12.22265625 21.83203125 C-6.93797037 15.0984684 -2.61933485 8.16616159 0 0 Z " fill="#DE40A2" transform="translate(468,253)"/>
<path d="M0 0 C11.81521135 -0.68826474 11.81521135 -0.68826474 15.625 1.75 C18 4 18 4 20 8 C16.7 7.67 13.4 7.34 10 7 C9.67 6.01 9.34 5.02 9 4 C9.33 3.34 9.66 2.68 10 2 C6.7 1.67 3.4 1.34 0 1 C0 0.67 0 0.34 0 0 Z " fill="#CA32C4" transform="translate(378,135)"/>
<path d="M0 0 C4.71085387 1.37250978 8.6834536 3.40110192 12.8125 6 C13.39708984 6.35578125 13.98167969 6.7115625 14.58398438 7.078125 C18.87008929 9.74017857 18.87008929 9.74017857 20 12 C18.68 12.33 17.36 12.66 16 13 C16 12.34 16 11.68 16 11 C14.68 10.67 13.36 10.34 12 10 C12 9.34 12 8.68 12 8 C11.01 8 10.02 8 9 8 C9 7.34 9 6.68 9 6 C6.36 5.34 3.72 4.68 1 4 C0.67 2.68 0.34 1.36 0 0 Z " fill="#E153A9" transform="translate(441,47)"/>
<path d="M0 0 C0 0.66 0 1.32 0 2 C-2.04837967 3.75237104 -4.09681991 5.3862676 -6.25 7 C-6.83652344 7.45117188 -7.42304688 7.90234375 -8.02734375 8.3671875 C-10.90069916 10.54964621 -13.68323384 12.55507217 -17 14 C-16.67 12.68 -16.34 11.36 -16 10 C-15.01 10 -14.02 10 -13 10 C-13 9.01 -13 8.02 -13 7 C-11.35 6.67 -9.7 6.34 -8 6 C-7.67 4.68 -7.34 3.36 -7 2 C-6.34 2.33 -5.68 2.66 -5 3 C-5 2.34 -5 1.68 -5 1 C-3 0 -3 0 0 0 Z " fill="#CA42AB" transform="translate(270,351)"/>
<path d="M0 0 C0.66 0.66 1.32 1.32 2 2 C1.6730244 4.61580479 1.17960932 6.64078137 0 9 C0.66 9.66 1.32 10.32 2 11 C1.625 13.625 1.625 13.625 1 16 C-0.65 16.33 -2.3 16.66 -4 17 C-3.125 9.125 -3.125 9.125 -2 8 C-1.835 6.845 -1.67 5.69 -1.5 4.5 C-1 1 -1 1 0 0 Z " fill="#E70C8D" transform="translate(54,119)"/>
<path d="M0 0 C1.32 0.66 2.64 1.32 4 2 C-0.12324647 6.25209792 -4.51282966 10.13635705 -9 14 C-9.33 13.34 -9.66 12.68 -10 12 C-10.66 11.67 -11.32 11.34 -12 11 C-11.01 11 -10.02 11 -9 11 C-9 10.01 -9 9.02 -9 8 C-8.01 8 -7.02 8 -6 8 C-5.67 7.01 -5.34 6.02 -5 5 C-4.01 5 -3.02 5 -2 5 C-2 4.34 -2 3.68 -2 3 C-1.34 3 -0.68 3 0 3 C0 2.01 0 1.02 0 0 Z " fill="#C83CA9" transform="translate(249,363)"/>
<path d="M0 0 C1.1446875 0.3403125 1.1446875 0.3403125 2.3125 0.6875 C2.1875 2.9375 2.1875 2.9375 1.3125 5.6875 C-1.5625 8.0625 -1.5625 8.0625 -4.6875 9.6875 C-5.6775 9.3575 -6.6675 9.0275 -7.6875 8.6875 C-7.0275 8.6875 -6.3675 8.6875 -5.6875 8.6875 C-5.7803125 7.2953125 -5.7803125 7.2953125 -5.875 5.875 C-5.6875 2.6875 -5.6875 2.6875 -4.5 0.75 C-2.6875 -0.3125 -2.6875 -0.3125 0 0 Z " fill="#CB26C3" transform="translate(393.6875,162.3125)"/>
<path d="M0 0 C0.33 0.99 0.66 1.98 1 3 C-0.625 5.625 -0.625 5.625 -3 8 C-4.175625 8.185625 -4.175625 8.185625 -5.375 8.375 C-9.55417893 9.3700426 -11.47850638 12.68133314 -14 16 C-14.99 15.34 -15.98 14.68 -17 14 C-15.6875 12.5 -15.6875 12.5 -14 11 C-13.01 11 -12.02 11 -11 11 C-10.64808594 10.12601562 -10.64808594 10.12601562 -10.2890625 9.234375 C-8.70847076 6.49468266 -6.90598503 5.13016031 -4.375 3.25 C-3.55773437 2.63640625 -2.74046875 2.0228125 -1.8984375 1.390625 C-0.95871094 0.70226562 -0.95871094 0.70226562 0 0 Z " fill="#CC57B4" transform="translate(253,316)"/>
<path d="M0 0 C0.33 0 0.66 0 1 0 C1.17015625 1.19496094 1.3403125 2.38992187 1.515625 3.62109375 C2.78066815 12.05471478 4.15431696 19.30863392 8 27 C7.67 27.66 7.34 28.32 7 29 C2.03394903 25.00154635 1.22472033 17.94080758 0 12 C-0.28516939 7.96814357 -0.26580724 4.03140974 0 0 Z " fill="#DC56AA" transform="translate(84,228)"/>
<path d="M0 0 C1.20366211 0.00483398 1.20366211 0.00483398 2.43164062 0.00976562 C3.68170898 0.02233398 3.68170898 0.02233398 4.95703125 0.03515625 C5.80201172 0.03966797 6.64699219 0.04417969 7.51757812 0.04882812 C9.6015928 0.06060222 11.68557102 0.07853735 13.76953125 0.09765625 C13.76953125 0.75765625 13.76953125 1.41765625 13.76953125 2.09765625 C6.50953125 2.75765625 -0.75046875 3.41765625 -8.23046875 4.09765625 C-7.90046875 3.10765625 -7.57046875 2.11765625 -7.23046875 1.09765625 C-4.46481493 0.17577164 -2.84763173 -0.02019597 0 0 Z " fill="#CE50AE" transform="translate(157.23046875,71.90234375)"/>
<path d="M0 0 C1.65 0 3.3 0 5 0 C5.66 1.32 6.32 2.64 7 4 C5.90716423 5.03295436 4.80029421 6.05107835 3.6875 7.0625 C3.07261719 7.63097656 2.45773438 8.19945312 1.82421875 8.78515625 C1.22222656 9.18605469 0.62023437 9.58695312 0 10 C-0.99 9.67 -1.98 9.34 -3 9 C-2.67 8.34 -2.34 7.68 -2 7 C-1.34 7 -0.68 7 0 7 C0 4.69 0 2.38 0 0 Z " fill="#CF38AE" transform="translate(176,417)"/>
<path d="M0 0 C2.31 0 4.62 0 7 0 C6.67 1.98 6.34 3.96 6 6 C7.32 6 8.64 6 10 6 C10 6.66 10 7.32 10 8 C10.99 8.33 11.98 8.66 13 9 C13.66 9.66 14.32 10.32 15 11 C9.56129427 10.60204592 5.89550695 8.71049606 2 5 C0.5625 2.1875 0.5625 2.1875 0 0 Z " fill="#CE49BA" transform="translate(161,162)"/>
<path d="M0 0 C0.90105469 0.02707031 1.80210937 0.05414063 2.73046875 0.08203125 C3.76107422 0.13423828 3.76107422 0.13423828 4.8125 0.1875 C2.1935335 2.8064665 -0.83495639 3.94444675 -4.1875 5.375 C-5.15042969 5.80329102 -5.15042969 5.80329102 -6.1328125 6.24023438 C-7.79161159 6.95337917 -9.48813023 7.57730963 -11.1875 8.1875 C-11.8475 7.8575 -12.5075 7.5275 -13.1875 7.1875 C-11.91280598 4.63811196 -10.69590774 4.44170387 -8.1875 3.1875 C-7.75566406 2.67445312 -7.32382813 2.16140625 -6.87890625 1.6328125 C-4.54596956 -0.36068999 -3.01873973 -0.11761324 0 0 Z " fill="#D448A8" transform="translate(144.1875,75.8125)"/>
<path d="M0 0 C2.31 0.33 4.62 0.66 7 1 C7.33 2.32 7.66 3.64 8 5 C9.423125 5.185625 9.423125 5.185625 10.875 5.375 C14 6 14 6 16 8 C15.01 8 14.02 8 13 8 C13 8.66 13 9.32 13 10 C11.35 10 9.7 10 8 10 C7.4121875 8.329375 7.4121875 8.329375 6.8125 6.625 C5.57517033 3.68039334 5.26393503 3.14117455 2.3125 1.5625 C1.1678125 1.2840625 1.1678125 1.2840625 0 1 C0 0.67 0 0.34 0 0 Z " fill="#E40D8F" transform="translate(434,46)"/>
<path d="M0 0 C0.66 0.33 1.32 0.66 2 1 C0.32506868 7.12779751 -1.53963655 11.42225856 -6 16 C-6.33 16 -6.66 16 -7 16 C-7.1875 13.6875 -7.1875 13.6875 -7 11 C-5.5625 9.375 -5.5625 9.375 -4 8 C-3.67 7.01 -3.34 6.02 -3 5 C-2.34 5 -1.68 5 -1 5 C-0.67 3.35 -0.34 1.7 0 0 Z " fill="#DB38C7" transform="translate(492,285)"/>
<path d="M0 0 C4.84073539 -0.27913193 8.31831378 0.59787036 12.8125 2.375 C13.95332031 2.81585938 15.09414063 3.25671875 16.26953125 3.7109375 C19 5 19 5 20 7 C16.7 6.67 13.4 6.34 10 6 C10 5.01 10 4.02 10 3 C7.36 3 4.72 3 2 3 C2 2.34 2 1.68 2 1 C1.34 0.67 0.68 0.34 0 0 Z " fill="#E051A8" transform="translate(421,40)"/>
<path d="M0 0 C0 4.05345102 -1.58160112 5.8215329 -4 9 C-4.99 9.33 -5.98 9.66 -7 10 C-8.69882448 12.49759982 -8.69882448 12.49759982 -10 15 C-11.32 14.67 -12.64 14.34 -14 14 C-9.38 9.38 -4.76 4.76 0 0 Z " fill="#E157B1" transform="translate(91,63)"/>
<path d="M0 0 C-0.33 1.32 -0.66 2.64 -1 4 C-1.66 4 -2.32 4 -3 4 C-3.33 5.32 -3.66 6.64 -4 8 C-6 7 -6 7 -8 5 C-5.72541886 1.64228499 -4.30291326 0 0 0 Z M-7 8 C-6.67 8.66 -6.34 9.32 -6 10 C-5.34 10.33 -4.68 10.66 -4 11 C-4.66 11.66 -5.32 12.32 -6 13 C-6.99 13 -7.98 13 -9 13 C-8.125 9.125 -8.125 9.125 -7 8 Z " fill="#DA1290" transform="translate(97,62)"/>
<path d="M0 0 C1.88138672 0.05414063 1.88138672 0.05414063 3.80078125 0.109375 C5.22970703 0.17898437 5.22970703 0.17898437 6.6875 0.25 C6.6875 0.58 6.6875 0.91 6.6875 1.25 C5.86765625 1.35957031 5.0478125 1.46914062 4.203125 1.58203125 C2.58664063 1.81986328 2.58664063 1.81986328 0.9375 2.0625 C-0.12984375 2.21332031 -1.1971875 2.36414063 -2.296875 2.51953125 C-5.41147174 3.27397372 -6.89790023 4.21665282 -9.3125 6.25 C-10.96047236 6.96162443 -12.62415408 7.64031953 -14.3125 8.25 C-11.60612083 1.36103484 -7.0485894 -0.26349867 0 0 Z " fill="#CA3BB3" transform="translate(175.3125,206.75)"/>
<path d="M0 0 C0.33 0 0.66 0 1 0 C0.67 6.93 0.34 13.86 0 21 C-2.7406949 18.2593051 -2.46260246 16.32069671 -2.75 12.5 C-2.84796875 11.3346875 -2.9459375 10.169375 -3.046875 8.96875 C-3 6 -3 6 -1 4 C-0.3574765 1.93125966 -0.3574765 1.93125966 0 0 Z " fill="#AA1A8C" transform="translate(82,160)"/>
<path d="M0 0 C0.33 0.99 0.66 1.98 1 3 C-4.625 6.875 -4.625 6.875 -8 8 C-8 8.66 -8 9.32 -8 10 C-8.66 10 -9.32 10 -10 10 C-8.65527231 3.52085747 -8.65527231 3.52085747 -5.5625 1.0625 C-3 0 -3 0 0 0 Z " fill="#E20D93" transform="translate(78,84)"/>
<path d="M0 0 C6.4 0.49230769 6.4 0.49230769 9.4375 3.0625 C10.2109375 4.0215625 10.2109375 4.0215625 11 5 C10.34 5 9.68 5 9 5 C9 5.66 9 6.32 9 7 C6.03 6.505 6.03 6.505 3 6 C3 5.34 3 4.68 3 4 C2.34 4 1.68 4 1 4 C0.67 2.68 0.34 1.36 0 0 Z " fill="#E40D8F" transform="translate(412,72)"/>
<path d="M0 0 C0.33 0.66 0.66 1.32 1 2 C0.01 2 -0.98 2 -2 2 C-2 2.66 -2 3.32 -2 4 C-1.34 4 -0.68 4 0 4 C-0.33 5.32 -0.66 6.64 -1 8 C-2.32 7.67 -3.64 7.34 -5 7 C-5.33 7.99 -5.66 8.98 -6 10 C-6.66 10 -7.32 10 -8 10 C-7.5020163 6.26512223 -7.12508244 4.18762365 -5 1 C-2.375 0.3125 -2.375 0.3125 0 0 Z " fill="#EB0C90" transform="translate(455,320)"/>
<path d="M0 0 C0.33 0.66 0.66 1.32 1 2 C0.01 2.495 0.01 2.495 -1 3 C-1.144375 4.11375 -1.28875 5.2275 -1.4375 6.375 C-2 10 -2 10 -3.4375 11.9375 C-5 13 -5 13 -7 13 C-7.99 13.495 -7.99 13.495 -9 14 C-8.34 12.02 -7.68 10.04 -7 8 C-6.34 8 -5.68 8 -5 8 C-4.5978125 6.2984375 -4.5978125 6.2984375 -4.1875 4.5625 C-3.795625 3.386875 -3.40375 2.21125 -3 1 C-2.01 0.67 -1.02 0.34 0 0 Z " fill="#E80C8F" transform="translate(465,267)"/>
<path d="M0 0 C-0.33 0.66 -0.66 1.32 -1 2 C-1.66 2 -2.32 2 -3 2 C-3 2.99 -3 3.98 -3 5 C-3.66 5 -4.32 5 -5 5 C-5.33 5.66 -5.66 6.32 -6 7 C-7.98 7 -9.96 7 -12 7 C-5.17241379 -1.72413793 -5.17241379 -1.72413793 0 0 Z " fill="#CA34B3" transform="translate(174,135)"/>
<path d="M0 0 C2.6875 0.875 2.6875 0.875 5 2 C4.34 4.31 3.68 6.62 3 9 C2.01 8.34 1.02 7.68 0 7 C0 6.34 0 5.68 0 5 C-0.66 5 -1.32 5 -2 5 C-2.33 4.01 -2.66 3.02 -3 2 C-2.01 1.34 -1.02 0.68 0 0 Z " fill="#E80B8F" transform="translate(435,80)"/>
<path d="M0 0 C1.32 0.33 2.64 0.66 4 1 C3.65120368 4.25543229 2.97866739 5.01873107 0.4375 7.25 C-0.7690625 8.11625 -0.7690625 8.11625 -2 9 C-2 8.34 -2 7.68 -2 7 C-2.66 7 -3.32 7 -4 7 C-2.79618552 4.50638429 -1.54571278 2.31856917 0 0 Z " fill="#CC34B0" transform="translate(217,387)"/>
<path d="M0 0 C2.15445657 4.30891314 2.17653176 5.95062123 1.8125 10.625 C1.73644531 11.77226562 1.66039062 12.91953125 1.58203125 14.1015625 C1 17 1 17 -2 19 C-1.34 12.73 -0.68 6.46 0 0 Z " fill="#E309AA" transform="translate(477,218)"/>
<path d="M0 0 C2.47682859 3.71524288 2.43538538 6.69638294 2 11 C1 14 1 14 0 16 C-0.66 16 -1.32 16 -2 16 C-2.04254356 14.00045254 -2.04080783 11.99958364 -2 10 C-1.67 9.67 -1.34 9.34 -1 9 C-0.76807135 7.48530552 -0.58784762 5.96245438 -0.4375 4.4375 C-0.35371094 3.61121094 -0.26992188 2.78492188 -0.18359375 1.93359375 C-0.12300781 1.29550781 -0.06242187 0.65742188 0 0 Z " fill="#C246BE" transform="translate(399,146)"/>
<path d="M0 0 C0.99 0 1.98 0 3 0 C3 2.64 3 5.28 3 8 C2.67 7.34 2.34 6.68 2 6 C1.05125 6.515625 0.1025 7.03125 -0.875 7.5625 C-1.90625 8.036875 -2.9375 8.51125 -4 9 C-4.66 8.67 -5.32 8.34 -6 8 C-5.07456291 6.65826597 -4.13422595 5.32679841 -3.1875 4 C-2.66542969 3.2575 -2.14335938 2.515 -1.60546875 1.75 C-0.81076172 0.88375 -0.81076172 0.88375 0 0 Z " fill="#DC359E" transform="translate(76,78)"/>
<path d="M0 0 C0.75 1.75 0.75 1.75 1 4 C-0.31054623 5.35573748 -1.64748503 6.68612831 -3 8 C-4.26784124 11.13350717 -4.26784124 11.13350717 -5 14 C-5.66 14 -6.32 14 -7 14 C-7 14.99 -7 15.98 -7 17 C-7.66 17 -8.32 17 -9 17 C-7.67419796 12.35969287 -5.76540778 8.93861108 -3 5 C-1.98940479 3.33973644 -0.98546999 1.67529898 0 0 Z " fill="#DC59A8" transform="translate(69,87)"/>
<path d="M0 0 C0.66 0.33 1.32 0.66 2 1 C2.625 4.0625 2.625 4.0625 3 7 C3.66 7 4.32 7 5 7 C5 7.66 5 8.32 5 9 C5.66 9.33 6.32 9.66 7 10 C3.00288588 10 1.8957671 8.67858456 -1 6 C-2.8125 3.25 -2.8125 3.25 -4 1 C-2.68 1.33 -1.36 1.66 0 2 C0 1.34 0 0.68 0 0 Z " fill="#DB41A1" transform="translate(82,304)"/>
<path d="M0 0 C3.19456081 2.63081478 4.29085201 5.68904879 5.75 9.5 C6.42289062 11.21703125 6.42289062 11.21703125 7.109375 12.96875 C8 16 8 16 7 19 C0 5.24137931 0 5.24137931 0 0 Z " fill="#D962DD" transform="translate(499,104)"/>
<path d="M0 0 C0 0.66 0 1.32 0 2 C1.32 2.33 2.64 2.66 4 3 C4 3.66 4 4.32 4 5 C2.865625 4.690625 1.73125 4.38125 0.5625 4.0625 C-3.92461414 2.93068767 -8.39707347 2.40488706 -13 2 C-13 1.67 -13 1.34 -13 1 C-8.59085217 -0.10228696 -4.51617599 -0.07654536 0 0 Z " fill="#D942A2" transform="translate(411,73)"/>
<path d="M0 0 C-1.21065165 3.63195496 -2.53691126 4.42896192 -5.5625 6.6875 C-6.38878906 7.31011719 -7.21507812 7.93273437 -8.06640625 8.57421875 C-8.70449219 9.04472656 -9.34257812 9.51523437 -10 10 C-10.33 8.68 -10.66 7.36 -11 6 C-9.68 6 -8.36 6 -7 6 C-6.9175 5.38125 -6.835 4.7625 -6.75 4.125 C-6 2 -6 2 -4.0625 0.75 C-2 0 -2 0 0 0 Z " fill="#C84CAE" transform="translate(200,406)"/>
<path d="M0 0 C0.66 0 1.32 0 2 0 C1.62207203 2.67456717 1.20233084 3.80611814 -0.77734375 5.703125 C-1.49019531 6.21359375 -2.20304688 6.7240625 -2.9375 7.25 C-3.64777344 7.77078125 -4.35804688 8.2915625 -5.08984375 8.828125 C-7 10 -7 10 -9 10 C-9 9.01 -9 8.02 -9 7 C-8.34 7 -7.68 7 -7 7 C-6.67 6.01 -6.34 5.02 -6 4 C-4.02 3.67 -2.04 3.34 0 3 C0 2.01 0 1.02 0 0 Z " fill="#CB54B4" transform="translate(210,396)"/>
<path d="M0 0 C1.32 0.33 2.64 0.66 4 1 C2.4169423 5.2742558 -0.50568404 7.26531794 -4 10 C-4 8.35 -4 6.7 -4 5 C-3.01 5 -2.02 5 -1 5 C-0.67 3.35 -0.34 1.7 0 0 Z " fill="#DE44BA" transform="translate(481,300)"/>
<path d="M0 0 C4.99911924 0.47610659 7.97832683 2.03162219 12 5 C11.67 5.66 11.34 6.32 11 7 C8.03 6.505 8.03 6.505 5 6 C5 5.01 5 4.02 5 3 C3.35 2.67 1.7 2.34 0 2 C0 1.34 0 0.68 0 0 Z " fill="#CD4BB8" transform="translate(385,206)"/>
<path d="M0 0 C5.61 0.66 11.22 1.32 17 2 C17 2.66 17 3.32 17 4 C5.47835991 4.55353075 5.47835991 4.55353075 0 1 C0 0.67 0 0.34 0 0 Z " fill="#D05DCD" transform="translate(225,169)"/>
<path d="M0 0 C0.33 0.66 0.66 1.32 1 2 C1.66 2 2.32 2 3 2 C3.66 4.31 4.32 6.62 5 9 C5.66 9 6.32 9 7 9 C7.33 10.65 7.66 12.3 8 14 C3.4901137 10.95277953 1.76990044 8.123396 0 3 C0 2.01 0 1.02 0 0 Z " fill="#D45AB6" transform="translate(142,414)"/>
<path d="M0 0 C4.29 0 8.58 0 13 0 C13 1.65 13 3.3 13 5 C12.67 4.34 12.34 3.68 12 3 C11.01 3.33 10.02 3.66 9 4 C6.73828125 3.44140625 6.73828125 3.44140625 4.3125 2.5625 C3.50425781 2.27503906 2.69601562 1.98757812 1.86328125 1.69140625 C1.24839844 1.46324219 0.63351562 1.23507813 0 1 C0 0.67 0 0.34 0 0 Z " fill="#DB1593" transform="translate(389,35)"/>
<path d="M0 0 C2.31 0.33 4.62 0.66 7 1 C7 1.66 7 2.32 7 3 C8.36125 2.8453125 8.36125 2.8453125 9.75 2.6875 C13 3 13 3 15.375 5.5 C15.91125 6.325 16.4475 7.15 17 8 C11.00067626 6.1668733 5.55079437 3.92678249 0 1 C0 0.67 0 0.34 0 0 Z " fill="#DC65B8" transform="translate(112,332)"/>
<path d="M0 0 C4.99213851 0.46801299 9.12963993 2.91715737 13 6 C13 6.66 13 7.32 13 8 C8.27626146 6.37621488 4.05818166 3.89006982 0 1 C0 0.67 0 0.34 0 0 Z " fill="#D857AD" transform="translate(99,324)"/>
<path d="M0 0 C2.5625 2.25 2.5625 2.25 5 5 C4.8125 7.3125 4.8125 7.3125 4 9 C3.01 8.67 2.02 8.34 1 8 C1.33 7.34 1.66 6.68 2 6 C0.68 5.34 -0.64 4.68 -2 4 C-1 1 -1 1 0 0 Z " fill="#E329B2" transform="translate(474,70)"/>
<path d="M0 0 C0.66 0 1.32 0 2 0 C1.61402985 2.79828356 1.19863427 3.8205884 -0.9375 5.75 C-3 7 -3 7 -5 7 C-5 5.68 -5 4.36 -5 3 C-5.66 3 -6.32 3 -7 3 C-7 2.34 -7 1.68 -7 1 C-6.01 1 -5.02 1 -4 1 C-4 1.66 -4 2.32 -4 3 C-2.68 3 -1.36 3 0 3 C0 2.01 0 1.02 0 0 Z " fill="#E144A3" transform="translate(460,321)"/>
<path d="M0 0 C2.94751667 2.74423966 5.22773678 5.36219655 7 9 C6.67 9.99 6.34 10.98 6 12 C3.37591634 9.62582907 1.61386598 7.15088121 0 4 C0 2.68 0 1.36 0 0 Z " fill="#D74BA5" transform="translate(96,266)"/>
<path d="M0 0 C1.48828125 0.98828125 1.48828125 0.98828125 3 3 C3.21714241 5.81127043 3.28284276 8.3883345 3.1875 11.1875 C3.17396484 11.93708984 3.16042969 12.68667969 3.14648438 13.45898438 C3.11118539 15.30629767 3.05737917 17.15324066 3 19 C2.34 19 1.68 19 1 19 C0.83168225 16.58343806 0.66528738 14.16676951 0.5 11.75 C0.45230469 11.06808594 0.40460938 10.38617188 0.35546875 9.68359375 C0.13521281 6.44268497 0 3.2506634 0 0 Z " fill="#E308AE" transform="translate(476,149)"/>
<path d="M0 0 C2.5 1.3125 2.5 1.3125 5 3 C5 3.99 5 4.98 5 6 C4.01 5.67 3.02 5.34 2 5 C1.67 5.66 1.34 6.32 1 7 C0.01 6.67 -0.98 6.34 -2 6 C-2 4.68 -2 3.36 -2 2 C-1.34 2 -0.68 2 0 2 C0 1.34 0 0.68 0 0 Z " fill="#E631A6" transform="translate(466,63)"/>
<path d="M0 0 C3 0 3 0 4.5 1.375 C4.995 1.91125 5.49 2.4475 6 3 C6.99 3.66 7.98 4.32 9 5 C5.37 5 1.74 5 -2 5 C-2 2 -2 2 0 0 Z " fill="#C41895" transform="translate(159,426)"/>
<path d="M0 0 C1.32 0 2.64 0 4 0 C4.33 0.66 4.66 1.32 5 2 C5.99 2.33 6.98 2.66 8 3 C8 3.66 8 4.32 8 5 C6.741875 4.87625 5.48375 4.7525 4.1875 4.625 C3.12595703 4.52058594 3.12595703 4.52058594 2.04296875 4.4140625 C0 4 0 4 -3 2 C-2.01 2 -1.02 2 0 2 C0 1.34 0 0.68 0 0 Z " fill="#CE33A0" transform="translate(134,338)"/>
<path d="M0 0 C2.77300866 1.38650433 3.45496074 3.34253248 5 6 C5.98244845 7.34631825 6.97676564 8.68441297 8 10 C7.67 10.66 7.34 11.32 7 12 C6.01 12 5.02 12 4 12 C3.71125 11.030625 3.4225 10.06125 3.125 9.0625 C2.35785318 5.89335797 2.35785318 5.89335797 0 5 C0 3.35 0 1.7 0 0 Z " fill="#DD54D2" transform="translate(489,87)"/>
<path d="M0 0 C2.64 0.33 5.28 0.66 8 1 C8 1.33 8 1.66 8 2 C11.3 2.33 14.6 2.66 18 3 C18 3.33 18 3.66 18 4 C5.33029613 4.55353075 5.33029613 4.55353075 0 1 C0 0.67 0 0.34 0 0 Z " fill="#E47CC8" transform="translate(150,428)"/>
<path d="M0 0 C0.66 0.99 1.32 1.98 2 3 C0.68 5.31 -0.64 7.62 -2 10 C-3 8 -4 6 -5 4 C-4.01 3.67 -3.02 3.34 -2 3 C-1.34 2.01 -0.68 1.02 0 0 Z " fill="#DB34D2" transform="translate(496,280)"/>
<path d="M0 0 C0.33 0 0.66 0 1 0 C2.45184478 4.53701494 3.23509196 8.18061476 3 13 C3.66 13.33 4.32 13.66 5 14 C4.34 14.66 3.68 15.32 3 16 C0.1647887 10.4477112 -0.37952295 6.19887485 0 0 Z " fill="#DE7ED9" transform="translate(217,149)"/>
<path d="M0 0 C1.9375 0.6875 1.9375 0.6875 4 2 C4.75 4.625 4.75 4.625 5 7 C4.01 7.33 3.02 7.66 2 8 C0.23537317 4.91190305 0 3.76687864 0 0 Z " fill="#DE02F0" transform="translate(504,131)"/>
<path d="M0 0 C1.07765625 0.01804688 2.1553125 0.03609375 3.265625 0.0546875 C4.49539062 0.08949219 4.49539062 0.08949219 5.75 0.125 C2.66190305 1.88962683 1.51687864 2.125 -2.25 2.125 C-2.58 2.785 -2.91 3.445 -3.25 4.125 C-3.25 3.465 -3.25 2.805 -3.25 2.125 C-5.56 2.125 -7.87 2.125 -10.25 2.125 C-6.7733662 -0.01836161 -4.03770805 -0.08777626 0 0 Z " fill="#C91B9B" transform="translate(163.25,34.875)"/>
<path d="M0 0 C0.33 2.97 0.66 5.94 1 9 C0.34 9 -0.32 9 -1 9 C-1 8.01 -1 7.02 -1 6 C-1.99 5.67 -2.98 5.34 -4 5 C-4 3.68 -4 2.36 -4 1 C-1 0 -1 0 0 0 Z " fill="#DB138C" transform="translate(67,280)"/>
<path d="M0 0 C3.6575515 1.21918383 4.42328869 2.84071298 6.21484375 6.14453125 C7.217815 8.51473693 7.30800164 10.45898646 7 13 C0 4.25 0 4.25 0 0 Z " fill="#E162AF" transform="translate(56,272)"/>
<path d="M0 0 C0.66 0.33 1.32 0.66 2 1 C0.11788404 4.48191452 -1.5009599 7.03178994 -5 9 C-5.99 8.67 -6.98 8.34 -8 8 C-6.68 7.67 -5.36 7.34 -4 7 C-3.8453125 6.1028125 -3.8453125 6.1028125 -3.6875 5.1875 C-2.91123545 2.71756736 -1.92911079 1.67748765 0 0 Z " fill="#CE5ABA" transform="translate(397,232)"/>
<path d="M0 0 C0.99 0 1.98 0 3 0 C3 0.66 3 1.32 3 2 C3.99 2 4.98 2 6 2 C6 3.32 6 4.64 6 6 C6.66 6.33 7.32 6.66 8 7 C3.61031544 7 2.23094261 4.87194899 -1 2 C-0.67 1.34 -0.34 0.68 0 0 Z " fill="#E246A2" transform="translate(439,90)"/>
<path d="M0 0 C2.31 0 4.62 0 7 0 C7 0.99 7 1.98 7 3 C7.66 3 8.32 3 9 3 C9 3.66 9 4.32 9 5 C6.69 4.34 4.38 3.68 2 3 C2 2.34 2 1.68 2 1 C1.34 0.67 0.68 0.34 0 0 Z " fill="#E50D91" transform="translate(424,43)"/>
<path d="M0 0 C1.33332095 2.6666419 0.67102033 4.16680303 0 7 C-2.31 6.67 -4.62 6.34 -7 6 C-2.25 1.125 -2.25 1.125 0 0 Z " fill="#CA48AD" transform="translate(192,365)"/>
<path d="M0 0 C-1 1.5 -1 1.5 -3 3 C-5.71846235 3.27345479 -8.25677199 3.13491285 -11 3 C-10.34 2.67 -9.68 2.34 -9 2 C-9 1.34 -9 0.68 -9 0 C-3.375 -1.125 -3.375 -1.125 0 0 Z " fill="#E40D8E" transform="translate(430,338)"/>
<path d="M0 0 C-1.66302124 3.32604248 -4.62976481 3.80042476 -8 5 C-10.4375 4.6875 -10.4375 4.6875 -12 4 C-4.71428571 -0.57142857 -4.71428571 -0.57142857 0 0 Z " fill="#C951B2" transform="translate(266,311)"/>
<path d="M0 0 C1.98 0.99 3.96 1.98 6 3 C4.02 3.99 4.02 3.99 2 5 C2 5.99 2 6.98 2 8 C0.68 7.34 -0.64 6.68 -2 6 C-1.34 4.02 -0.68 2.04 0 0 Z " fill="#DE3EAC" transform="translate(126,296)"/>
<path d="M0 0 C0.33 0.66 0.66 1.32 1 2 C-0.55599625 6.50419967 -1.81168455 9.5447806 -6 12 C-6.66 11.67 -7.32 11.34 -8 11 C-7.4225 10.29875 -6.845 9.5975 -6.25 8.875 C-3.99507048 5.99370117 -1.99497904 3.06371781 0 0 Z " fill="#E166AE" transform="translate(462,266)"/>
<path d="M0 0 C-0.33 1.65 -0.66 3.3 -1 5 C-1.66 5 -2.32 5 -3 5 C-3 7.31 -3 9.62 -3 12 C-3.33 12 -3.66 12 -4 12 C-4 8.37 -4 4.74 -4 1 C-2 0 -2 0 0 0 Z " fill="#BB119E" transform="translate(164,145)"/>
<path d="M0 0 C5.09448798 0.43173627 8.84512277 0.75400216 13 4 C13 4.66 13 5.32 13 6 C12.34 5.731875 11.68 5.46375 11 5.1875 C7.35060933 3.74294953 3.67754567 2.37128822 0 1 C0 0.67 0 0.34 0 0 Z " fill="#DC57AB" transform="translate(415,78)"/>
<path d="M0 0 C0.66 0.33 1.32 0.66 2 1 C1.67 2.32 1.34 3.64 1 5 C0.34 5 -0.32 5 -1 5 C-1 5.99 -1 6.98 -1 8 C-1.99 8 -2.98 8 -4 8 C-3.40138258 5.64828869 -2.73075648 3.3140622 -2 1 C-1.34 0.67 -0.68 0.34 0 0 Z " fill="#CC10A1" transform="translate(258,353)"/>
<path d="M0 0 C2.78388975 1.70625501 3.85384206 2.47626739 4.75 5.6875 C4.8325 6.450625 4.915 7.21375 5 8 C3.125 7.875 3.125 7.875 1 7 C-0.25 3.9375 -0.25 3.9375 -1 1 C-0.67 0.67 -0.34 0.34 0 0 Z " fill="#DC1D8F" transform="translate(75,297)"/>
<path d="M0 0 C3.48331435 3.01887244 4.79157144 5.56909529 6 10 C3.525 9.01 3.525 9.01 1 8 C0.67 5.36 0.34 2.72 0 0 Z " fill="#D4369A" transform="translate(90,256)"/>
<path d="M0 0 C1.485 0.99 1.485 0.99 3 2 C2.67 4.64 2.34 7.28 2 10 C1.34 10 0.68 10 0 10 C-0.33 10.66 -0.66 11.32 -1 12 C-1 10.02 -1 8.04 -1 6 C-0.34 6 0.32 6 1 6 C0.67 4.02 0.34 2.04 0 0 Z " fill="#DC03EA" transform="translate(505,249)"/>
<path d="M0 0 C0.33 0.66 0.66 1.32 1 2 C0.01 3.485 0.01 3.485 -1 5 C-1.66 5 -2.32 5 -3 5 C-3 5.66 -3 6.32 -3 7 C-4.65 7.66 -6.3 8.32 -8 9 C-7.67 8.01 -7.34 7.02 -7 6 C-6.34 6 -5.68 6 -5 6 C-5 5.01 -5 4.02 -5 3 C-3.68 3 -2.36 3 -1 3 C-0.67 2.01 -0.34 1.02 0 0 Z " fill="#D062BB" transform="translate(196,162)"/>
<path d="M0 0 C0.99 0.33 1.98 0.66 3 1 C1.50902342 4.7952131 -0.75700849 6.61042731 -4 9 C-4.33 8.01 -4.66 7.02 -5 6 C-3.35 5.34 -1.7 4.68 0 4 C0 2.68 0 1.36 0 0 Z " fill="#D652AC" transform="translate(114,92)"/>
<path d="M0 0 C3.28788824 3.11016455 5.83735988 6.01618925 8 10 C7.01 10.495 7.01 10.495 6 11 C5.67 9.68 5.34 8.36 5 7 C4.01 7 3.02 7 2 7 C1.34 4.69 0.68 2.38 0 0 Z " fill="#DD54C2" transform="translate(481,77)"/>
<path d="M0 0 C0 0.33 0 0.66 0 1 C-3.63 1.33 -7.26 1.66 -11 2 C-10.67 1.01 -10.34 0.02 -10 -1 C-6.06329512 -2.31223496 -3.87511856 -1.24296256 0 0 Z " fill="#D23BAB" transform="translate(160,74)"/>
<path d="M0 0 C0 3.5747073 -0.55352838 4.46916729 -3 7 C-5.6875 7.75 -5.6875 7.75 -8 8 C-6.88333826 4.65001479 -6.25305075 4.20659778 -3.4375 2.3125 C-2.79683594 1.87550781 -2.15617188 1.43851562 -1.49609375 0.98828125 C-1.00238281 0.66214844 -0.50867188 0.33601563 0 0 Z " fill="#CA60B9" transform="translate(218,344)"/>
<path d="M0 0 C6.625 0.75 6.625 0.75 10 3 C10 3.66 10 4.32 10 5 C9.01 5 8.02 5 7 5 C7 4.34 7 3.68 7 3 C4.69 2.67 2.38 2.34 0 2 C0 1.34 0 0.68 0 0 Z " fill="#D21691" transform="translate(112,330)"/>
<path d="M0 0 C-0.66 0 -1.32 0 -2 0 C-2 0.66 -2 1.32 -2 2 C-4.64 2.66 -7.28 3.32 -10 4 C-9.67 2.68 -9.34 1.36 -9 0 C-5.62182575 -0.84454356 -3.32534757 -1.10844919 0 0 Z " fill="#D22092" transform="translate(406,310)"/>
<path d="M0 0 C2.475 0.495 2.475 0.495 5 1 C5 4 5 4 4 6 C2.68 5.67 1.36 5.34 0 5 C0 3.35 0 1.7 0 0 Z " fill="#E60F8B" transform="translate(451,98)"/>
<path d="M0 0 C0 0.66 0 1.32 0 2 C-1.24176695 2.70226141 -2.49385599 3.38629109 -3.75 4.0625 C-4.79414062 4.63677734 -4.79414062 4.63677734 -5.859375 5.22265625 C-8.36140628 6.1312406 -9.5332355 5.88336837 -12 5 C-10.37750059 4.16180842 -8.75191503 3.3295884 -7.125 2.5 C-6.22007813 2.0359375 -5.31515625 1.571875 -4.3828125 1.09375 C-2 0 -2 0 0 0 Z " fill="#D460AF" transform="translate(118,47)"/>
<path d="M0 0 C0.99 1.32 1.98 2.64 3 4 C2.34 4.66 1.68 5.32 1 6 C-1.125 5.625 -1.125 5.625 -3 5 C-2.625 3.0625 -2.625 3.0625 -2 1 C-1.34 0.67 -0.68 0.34 0 0 Z " fill="#CD26A5" transform="translate(180,417)"/>
<path d="M0 0 C0.99 0 1.98 0 3 0 C3 0.66 3 1.32 3 2 C-0.00313748 3.50156874 -2.79067522 3.09281204 -6.125 3.0625 C-7.40632813 3.05347656 -8.68765625 3.04445313 -10.0078125 3.03515625 C-11.48894531 3.01775391 -11.48894531 3.01775391 -13 3 C-13 2.67 -13 2.34 -13 2 C-12.14535156 1.93941406 -11.29070312 1.87882812 -10.41015625 1.81640625 C-8.75306641 1.69072266 -8.75306641 1.69072266 -7.0625 1.5625 C-5.96035156 1.48128906 -4.85820312 1.40007812 -3.72265625 1.31640625 C-1.08890097 1.29581916 -1.08890097 1.29581916 0 0 Z " fill="#DE1390" transform="translate(404,344)"/>
<path d="M0 0 C0.99 0 1.98 0 3 0 C3 1.98 3 3.96 3 6 C1.68 6.33 0.36 6.66 -1 7 C-0.67 4.69 -0.34 2.38 0 0 Z " fill="#E60AA8" transform="translate(474,304)"/>
<path d="M0 0 C0.33 0 0.66 0 1 0 C1.19294408 4.82360189 0.75747614 8.49646738 -1 13 C-1.33 13 -1.66 13 -2 13 C-2.16682272 8.07872966 -2.24828052 4.49656104 0 0 Z " fill="#D01D8B" transform="translate(87,132)"/>
<path d="M0 0 C2 3 2 3 2 5 C2.66 5 3.32 5 4 5 C4.33 6.65 4.66 8.3 5 10 C2.525 9.01 2.525 9.01 0 8 C0 5.36 0 2.72 0 0 Z " fill="#D938E1" transform="translate(504,118)"/>
<path d="M0 0 C0.66 0 1.32 0 2 0 C1.835 0.598125 1.67 1.19625 1.5 1.8125 C0.8885876 4.11344336 0.8885876 4.11344336 1 7 C0.34 7 -0.32 7 -1 7 C-1.33 7.66 -1.66 8.32 -2 9 C-3.125 5.25 -3.125 5.25 -2 3 C-1.34 3 -0.68 3 0 3 C0 2.01 0 1.02 0 0 Z " fill="#E1118E" transform="translate(62,101)"/>
<path d="M0 0 C0 0.99 0 1.98 0 3 C-3.29102008 3.90786761 -5.81119049 4.59440475 -9 3 C-6.15236477 0.15236477 -3.96383452 0 0 0 Z " fill="#CA34AB" transform="translate(202,361)"/>
<path d="M0 0 C0.33 0.99 0.66 1.98 1 3 C0.01 3.33 -0.98 3.66 -2 4 C-2 4.66 -2 5.32 -2 6 C-3.98 6.66 -5.96 7.32 -8 8 C-5.33333333 5.33333333 -2.66666667 2.66666667 0 0 Z " fill="#DC4FA1" transform="translate(447,285)"/>
<path d="M0 0 C0.66 0.33 1.32 0.66 2 1 C1.40138258 3.35171131 0.73075648 5.6859378 0 8 C-0.99 8.495 -0.99 8.495 -2 9 C-2.33 7.68 -2.66 6.36 -3 5 C-2.34 5 -1.68 5 -1 5 C-0.67 3.35 -0.34 1.7 0 0 Z " fill="#CF22C2" transform="translate(492,285)"/>
<path d="M0 0 C0.66 0.66 1.32 1.32 2 2 C1.625 4.625 1.625 4.625 1 7 C-2 5 -2 5 -2.6875 2.875 C-2.790625 2.25625 -2.89375 1.6375 -3 1 C-2.01 0.67 -1.02 0.34 0 0 Z " fill="#E90C8B" transform="translate(459,104)"/>
<path d="M0 0 C0.66 0.33 1.32 0.66 2 1 C2 2.65 2 4.3 2 6 C2.66 6.33 3.32 6.66 4 7 C3.01 7.33 2.02 7.66 1 8 C1 6.68 1 5.36 1 4 C0.01 4 -0.98 4 -2 4 C-2 3.01 -2 2.02 -2 1 C-1.34 0.67 -0.68 0.34 0 0 Z " fill="#E30B8E" transform="translate(444,88)"/>
<path d="M0 0 C1.32 0.33 2.64 0.66 4 1 C4 1.66 4 2.32 4 3 C3.360625 3.12375 2.72125 3.2475 2.0625 3.375 C1.381875 3.58125 0.70125 3.7875 0 4 C-0.33 4.66 -0.66 5.32 -1 6 C-1.33 4.68 -1.66 3.36 -2 2 C-1.34 2 -0.68 2 0 2 C0 1.34 0 0.68 0 0 Z " fill="#E00B96" transform="translate(114,88)"/>
<path d="M0 0 C1.43836751 0.11458693 2.87570966 0.24209116 4.3125 0.375 C5.51326172 0.47941406 5.51326172 0.47941406 6.73828125 0.5859375 C9 1 9 1 12 3 C9.03 3 6.06 3 3 3 C3 2.34 3 1.68 3 1 C2.01 0.67 1.02 0.34 0 0 Z " fill="#DF5FAF" transform="translate(384,71)"/>
<path d="M0 0 C0.8971875 0.5259375 0.8971875 0.5259375 1.8125 1.0625 C-1.69526784 2.66605101 -4.33104879 3.28286864 -8.1875 3.0625 C-5.67391791 0.30952914 -3.81682031 -1.63578013 0 0 Z " fill="#D855B0" transform="translate(126.1875,43.9375)"/>
<path d="M0 0 C0 0.66 0 1.32 0 2 C-3.21451269 3.60725635 -6.43612536 3.05748185 -10 3 C-6.1865669 0.45771127 -4.5252563 -0.11908569 0 0 Z " fill="#CE46A4" transform="translate(137,40)"/>
<path d="M0 0 C0.99 0 1.98 0 3 0 C4 3 4 3 3.0625 5.1875 C2.5365625 6.0846875 2.5365625 6.0846875 2 7 C1.34 6.67 0.68 6.34 0 6 C0 4.02 0 2.04 0 0 Z " fill="#C71BA8" transform="translate(198,400)"/>
<path d="M0 0 C0.66 0 1.32 0 2 0 C1.4409112 3.24271506 0.5867822 4.93057424 -2 7 C-2.66 7 -3.32 7 -4 7 C-3.67 5.68 -3.34 4.36 -3 3 C-2.01 3 -1.02 3 0 3 C0 2.01 0 1.02 0 0 Z " fill="#CE52B0" transform="translate(257,358)"/>
<path d="M0 0 C0.66 0.33 1.32 0.66 2 1 C-0.97 3.475 -0.97 3.475 -4 6 C-4.66 5.34 -5.32 4.68 -6 4 C-3.94766315 1.7522025 -2.99332739 0.9977758 0 0 Z " fill="#C645AB" transform="translate(242,326)"/>
<path d="M0 0 C1.32 0 2.64 0 4 0 C2.95125002 2.62187494 2.35068687 3.79371361 -0.125 5.25 C-0.74375 5.4975 -1.3625 5.745 -2 6 C-2 5.01 -2 4.02 -2 3 C-1.34 2.67 -0.68 2.34 0 2 C0 1.34 0 0.68 0 0 Z " fill="#DF3DA3" transform="translate(465,316)"/>
<path d="M0 0 C0.66 0 1.32 0 2 0 C1.25 6.75 1.25 6.75 -1 9 C-1.125 2.25 -1.125 2.25 0 0 Z " fill="#D134DB" transform="translate(505,259)"/>
<path d="M0 0 C1.65 0 3.3 0 5 0 C5.66 1.32 6.32 2.64 7 4 C6.01 4.495 6.01 4.495 5 5 C3.35 3.35 1.7 1.7 0 0 Z " fill="#CC47BB" transform="translate(162,236)"/>
<path d="M0 0 C-0.875 4.75 -0.875 4.75 -2 7 C-2.66 7 -3.32 7 -4 7 C-4 5.02 -4 3.04 -4 1 C-2 0 -2 0 0 0 Z " fill="#D2168C" transform="translate(93,122)"/>
<path d="M0 0 C2 1.75 2 1.75 4 4 C4 5.32 4 6.64 4 8 C3.34 8 2.68 8 2 8 C0.23537317 4.91190305 0 3.76687864 0 0 Z " fill="#CF27CB" transform="translate(495,98)"/>
<path d="M0 0 C0.33 0.66 0.66 1.32 1 2 C1.66 2 2.32 2 3 2 C1.86695008 5.39914975 0.87481525 6.05254451 -2 8 C-1.125 1.125 -1.125 1.125 0 0 Z " fill="#EE089C" transform="translate(468,67)"/>
<path d="M0 0 C-1.6875 1.5625 -1.6875 1.5625 -4 3 C-6.75 2.6875 -6.75 2.6875 -9 2 C-4.13793103 -1.24137931 -4.13793103 -1.24137931 0 0 Z " fill="#CC46A6" transform="translate(174,428)"/>
<path d="M0 0 C4.67692308 1.47692308 4.67692308 1.47692308 6.3125 4.125 C6.539375 4.74375 6.76625 5.3625 7 6 C6.01 6 5.02 6 4 6 C1.8125 3 1.8125 3 0 0 Z " fill="#E54EA7" transform="translate(451,103)"/>
<path d="M0 0 C-0.6875 1.9375 -0.6875 1.9375 -2 4 C-4.625 4.75 -4.625 4.75 -7 5 C-5.64703851 0.94111554 -4.27479763 0 0 0 Z " fill="#D042A1" transform="translate(108,53)"/>
<path d="M0 0 C5.75 -0.125 5.75 -0.125 8 1 C8 1.66 8 2.32 8 3 C6.02 3 4.04 3 2 3 C2 2.34 2 1.68 2 1 C1.34 0.67 0.68 0.34 0 0 Z " fill="#D93A9A" transform="translate(421,40)"/>
<path d="M0 0 C0.33 1.32 0.66 2.64 1 4 C2.32 3.34 3.64 2.68 5 2 C5 3.32 5 4.64 5 6 C3.35 6 1.7 6 0 6 C0 4.02 0 2.04 0 0 Z " fill="#C943A7" transform="translate(180,369)"/>
<path d="M0 0 C0.99 0 1.98 0 3 0 C2.6875 1.875 2.6875 1.875 2 4 C1.01 4.66 0.02 5.32 -1 6 C-1 5.34 -1 4.68 -1 4 C-1.66 3.67 -2.32 3.34 -3 3 C-2.01 3 -1.02 3 0 3 C0 2.01 0 1.02 0 0 Z " fill="#CE4AB0" transform="translate(240,371)"/>
<path d="M0 0 C-1.28913487 0.67154933 -2.58140204 1.33708859 -3.875 2 C-4.59429687 2.37125 -5.31359375 2.7425 -6.0546875 3.125 C-8 4 -8 4 -10 4 C-9.67 3.01 -9.34 2.02 -9 1 C-2.63157895 -1.31578947 -2.63157895 -1.31578947 0 0 Z " fill="#E56DB9" transform="translate(442,336)"/>
<path d="M0 0 C0.99 0.33 1.98 0.66 3 1 C3 1.66 3 2.32 3 3 C3.66 3.33 4.32 3.66 5 4 C2.69 4 0.38 4 -2 4 C-1.34 2.68 -0.68 1.36 0 0 Z " fill="#D21496" transform="translate(129,299)"/>
<path d="M0 0 C2.475 0.99 2.475 0.99 5 2 C5 2.99 5 3.98 5 5 C4.01 4.34 3.02 3.68 2 3 C2 3.66 2 4.32 2 5 C1.34 5 0.68 5 0 5 C0 3.35 0 1.7 0 0 Z " fill="#DB1093" transform="translate(90,263)"/>
<path d="M0 0 C2.9375 0.8125 2.9375 0.8125 6 2 C6.33 2.99 6.66 3.98 7 5 C4.03 4.505 4.03 4.505 1 4 C0.67 2.68 0.34 1.36 0 0 Z " fill="#DA3B97" transform="translate(441,47)"/>
</svg>
